<svg width="1024" height="1024" viewBox="0 0 1024 1024" fill="none" xmlns="http://www.w3.org/2000/svg">
<g clip-path="url(#clip0_213_100)">
<rect width="1024" height="1024" fill="#040D06"/>
<line x1="102.5" y1="-2.17703e-08" x2="102.5" y2="1024" stroke="#071A0D"/>
<line x1="-4.37114e-08" y1="916" x2="1024" y2="916" stroke="#071A0D"/>
<line x1="306.5" y1="-2.17703e-08" x2="306.5" y2="1024" stroke="#071A0D"/>
<line x1="-4.37114e-08" y1="712" x2="1024" y2="712" stroke="#071A0D"/>
<line x1="510.5" y1="-2.17703e-08" x2="510.5" y2="1024" stroke="#071A0D"/>
<line x1="-4.37114e-08" y1="508" x2="1024" y2="508" stroke="#071A0D"/>
<line x1="714.5" y1="-2.17703e-08" x2="714.5" y2="1024" stroke="#071A0D"/>
<line x1="-4.37114e-08" y1="304" x2="1024" y2="304" stroke="#071A0D"/>
<line x1="918.5" y1="-2.17703e-08" x2="918.5" y2="1024" stroke="#071A0D"/>
<line x1="-4.37114e-08" y1="100" x2="1024" y2="99.9999" stroke="#071A0D"/>
<line x1="204.5" y1="-2.17703e-08" x2="204.5" y2="1024" stroke="#071A0D"/>
<line x1="-4.37114e-08" y1="814" x2="1024" y2="814" stroke="#071A0D"/>
<line x1="408.5" y1="-2.17703e-08" x2="408.5" y2="1024" stroke="#071A0D"/>
<line x1="-4.37114e-08" y1="610" x2="1024" y2="610" stroke="#071A0D"/>
<line x1="612.5" y1="-2.17703e-08" x2="612.5" y2="1024" stroke="#071A0D"/>
<line x1="-4.37114e-08" y1="406" x2="1024" y2="406" stroke="#071A0D"/>
<line x1="816.5" y1="-2.17703e-08" x2="816.5" y2="1024" stroke="#071A0D"/>
<line x1="-4.37114e-08" y1="202" x2="1024" y2="202" stroke="#071A0D"/>
<path d="M428.812 106.697V124.229H979.998V274.319H982.991V318.79H451.476V330.336H982.991V472.301H426.247V470.163H413.419V322.639H365.099V316.225H980.425V276.885H408.715V126.795H229.12V122.519H212.443V119.953H231.686V124.229H411.281V274.319H426.247V106.697H428.812ZM889.345 469.735H980.425V332.901H889.345V469.735ZM795.699 469.735H886.779V332.901H795.699V469.735ZM698.205 469.735H793.133V332.901H698.205V469.735ZM604.131 469.735H695.639V332.901H604.131V469.735ZM531.438 382.931H510.485V469.735H601.566V332.901H531.438V382.931ZM489.533 407.732H428.812V469.735H507.92V380.366H528.872V332.901H489.533V407.732ZM367.665 320.073H415.984V467.597H426.247V356.42H448.91V318.79H367.665V320.073ZM451.476 358.985H428.812V405.167H486.967V332.901H451.476V358.985ZM894.049 274.319H977.432V126.795H894.049V274.319ZM799.548 274.319H891.483V126.795H799.548V274.319ZM709.323 274.319H796.982V126.795H709.323V274.319ZM613.539 274.319H706.757V126.795H613.539V274.319ZM513.479 274.319H610.973V126.795H513.479V274.319ZM428.812 274.319H510.913V126.795H428.812V274.319Z" fill="#06DF73"/>
<path d="M206.457 325.204V669H54.6564V666.434H203.891V325.204H206.457Z" fill="#06DF73"/>
<path d="M356.119 688.242V922.999H353.554V690.808H55.9392V915.302H214.154V917.867H53.3736V688.242H356.119ZM213.726 119.098V325.632H55.9392V667.717H53.3736V323.066H211.161V311.093H53.3736V119.098H213.726ZM55.9392 308.527H211.161V121.663H55.9392V308.527Z" fill="#06DF73"/>
<path d="M232.113 99V104.986H795.699V101.993H995.819V489.405H399.505L375.789 509.441V925.136H251.783V910.17H215.864V925.128L29 926V901.19H32.4209V709.623H29V666.007H32.8485V432.533H36.2693V331.191H31.138V99H232.113ZM34.5589 327.77H39.6902V435.954H36.2693V669.428H32.4209V706.202H35.8417V904.611H32.4209V922.562L212.443 921.723V906.749H255.204V921.716H372.368V507.853L398.254 485.984H992.398V105.414H799.12V108.407H228.692V102.421H34.5589V327.77Z" fill="#06DF73"/>
<path d="M197.477 689.526V855.009H149.585V916.585H147.019V855.009H55.5116V852.444H194.911V762.646H55.5116V760.081H194.911V689.526H197.477ZM241.948 689.526H239.81V670.283H206.457V689.526H203.891V667.718H250.5V473.584H253.494V316.652H281.716V324.349H270.17V467.598H326.387L357.987 508.289L355.961 509.862L325.131 470.163H267.605V321.784H279.15V319.218H256.059V476.15H253.066V479.571H321.241L356.119 522.733V670.283H242.376V689.526H244.514V762.646H354.836V765.212H244.514V853.727H354.409V856.292H244.514V908.033H241.948V689.526ZM253.066 667.718H353.554V592.031H253.066V667.718ZM205.174 589.466V592.031H55.5116V589.466H205.174ZM253.066 589.466H353.554V523.64L320.015 482.136H253.066V589.466ZM205.174 507.793V510.358H55.5116V507.793H205.174ZM205.174 429.968V432.534H55.5116V429.968H205.174Z" fill="#06DF73"/>
<path d="M158.121 358.156C157.785 358.492 157.426 358.734 157.046 358.881C156.663 359.025 156.28 359.058 155.895 358.98C155.51 358.898 155.143 358.682 154.795 358.334C154.502 358.041 154.31 357.741 154.218 357.434C154.126 357.127 154.113 356.82 154.177 356.513C154.241 356.206 154.36 355.904 154.534 355.606C154.711 355.306 154.917 355.013 155.153 354.726C155.428 354.387 155.645 354.11 155.805 353.895C155.964 353.677 156.056 353.498 156.084 353.356C156.111 353.214 156.069 353.086 155.957 352.974L155.936 352.954C155.718 352.736 155.481 352.636 155.225 352.655C154.971 352.671 154.719 352.803 154.469 353.053C154.205 353.317 154.054 353.585 154.015 353.857C153.974 354.127 154.015 354.375 154.139 354.599L152.675 355.843C152.423 355.454 152.281 355.041 152.249 354.606C152.215 354.169 152.294 353.728 152.486 353.283C152.679 352.834 152.986 352.399 153.407 351.978C153.7 351.685 154.015 351.438 154.352 351.239C154.691 351.037 155.037 350.905 155.39 350.84C155.745 350.774 156.096 350.793 156.445 350.899C156.79 351.002 157.12 351.21 157.434 351.524L160.994 355.084L159.606 356.472L158.874 355.74L158.833 355.781C158.913 356.031 158.945 356.29 158.929 356.558C158.91 356.824 158.837 357.092 158.709 357.362C158.578 357.63 158.382 357.894 158.121 358.156ZM157.53 356.726C157.746 356.511 157.893 356.278 157.974 356.029C158.051 355.777 158.064 355.53 158.011 355.29C157.959 355.049 157.84 354.836 157.654 354.651L157.094 354.091C157.078 354.166 157.042 354.257 156.987 354.362C156.932 354.463 156.866 354.573 156.788 354.692C156.708 354.809 156.627 354.925 156.544 355.039C156.459 355.151 156.383 355.253 156.314 355.345C156.167 355.542 156.057 355.732 155.984 355.915C155.911 356.099 155.886 356.273 155.909 356.438C155.929 356.6 156.008 356.75 156.146 356.888C156.345 357.087 156.569 357.167 156.819 357.128C157.069 357.085 157.306 356.951 157.53 356.726Z" fill="#06DF73"/>
<path d="M147.746 353.9L149.147 354.408C149.122 354.681 149.049 354.937 148.928 355.178C148.804 355.416 148.625 355.67 148.392 355.941C148.16 356.209 147.868 356.526 147.515 356.893C147.112 357.305 146.845 357.702 146.715 358.085C146.584 358.467 146.588 358.86 146.725 359.263C146.86 359.664 147.124 360.102 147.515 360.576L147.567 360.524C147.402 360.043 147.375 359.571 147.484 359.109C147.597 358.644 147.865 358.199 148.288 357.776C148.737 357.327 149.229 357.032 149.763 356.893C150.299 356.751 150.845 356.77 151.401 356.951C151.958 357.132 152.494 357.48 153.009 357.995C153.545 358.532 153.906 359.103 154.092 359.71C154.277 360.312 154.287 360.915 154.119 361.517C153.95 362.117 153.599 362.683 153.068 363.215C152.534 363.748 151.962 364.097 151.35 364.259C150.741 364.42 150.112 364.386 149.464 364.16C148.818 363.931 148.175 363.496 147.536 362.857L147.103 362.424C145.832 361.153 145.137 359.963 145.017 358.854C144.898 357.746 145.314 356.707 146.265 355.738C146.521 355.472 146.756 355.235 146.969 355.027C147.182 354.818 147.356 354.624 147.491 354.443C147.629 354.259 147.714 354.079 147.746 353.9ZM151.941 362.074C152.165 361.849 152.299 361.599 152.343 361.321C152.389 361.042 152.346 360.75 152.216 360.445C152.088 360.138 151.872 359.834 151.57 359.531C151.27 359.231 150.971 359.022 150.673 358.903C150.375 358.779 150.09 358.743 149.817 358.796C149.545 358.849 149.295 358.988 149.068 359.215C148.899 359.385 148.778 359.568 148.704 359.765C148.631 359.962 148.607 360.169 148.632 360.387C148.657 360.6 148.732 360.821 148.855 361.05C148.979 361.275 149.153 361.499 149.378 361.724C149.829 362.175 150.282 362.434 150.738 362.5C151.194 362.562 151.595 362.42 151.941 362.074Z" fill="#06DF73"/>
<path d="M141.735 374.342L140.835 369.752L136.468 369.054L138.138 367.384L141.574 368.078L141.801 367.852L139.736 365.787L141.199 364.323L143.264 366.388L143.484 366.168L142.79 362.732L144.46 361.062L145.161 365.426L149.748 366.329L148.04 368.037L144.621 367.333L144.415 367.539L146.477 369.6L145.013 371.064L142.952 369.003L142.745 369.209L143.443 372.634L141.735 374.342Z" fill="#06DF73"/>
<path d="M139.292 380.742C139.107 380.928 138.918 381.087 138.725 381.22C138.538 381.353 138.369 381.45 138.22 381.512L137.457 380.09C137.682 379.971 137.865 379.845 138.007 379.712C138.152 379.577 138.24 379.424 138.272 379.255C138.306 379.083 138.273 378.882 138.172 378.653L138.035 378.344L130.713 374.809L132.252 373.269L137.22 376.052L137.275 375.997L134.503 371.019L136.052 369.469L139.849 377.368C140.034 377.751 140.148 378.132 140.189 378.513C140.235 378.893 140.187 379.268 140.045 379.64C139.905 380.013 139.654 380.381 139.292 380.742Z" fill="#06DF73"/>
<path d="M130.44 385.637L129.272 384.482L129.447 384.307C129.571 384.184 129.648 384.047 129.678 383.898C129.707 383.745 129.683 383.57 129.605 383.373C129.528 383.176 129.392 382.947 129.2 382.685C129.005 382.422 128.746 382.117 128.423 381.772L126.173 379.349L130.186 375.336L135.464 380.614L134.069 382.009L129.942 377.882L128.64 379.184L130.169 380.878C130.59 381.341 130.917 381.775 131.148 382.18C131.382 382.584 131.525 382.963 131.578 383.318C131.628 383.67 131.595 384.001 131.478 384.311C131.361 384.62 131.162 384.915 130.88 385.197L130.44 385.637Z" fill="#06DF73"/>
<path d="M127.559 388.725C127.018 389.265 126.438 389.616 125.82 389.776C125.201 389.932 124.583 389.909 123.965 389.708C123.348 389.504 122.773 389.135 122.24 388.601C121.699 388.061 121.329 387.482 121.13 386.866C120.931 386.245 120.91 385.627 121.068 385.011C121.224 384.392 121.569 383.816 122.102 383.282C122.563 382.822 123.049 382.502 123.563 382.324C124.076 382.145 124.584 382.106 125.088 382.207C125.592 382.308 126.058 382.552 126.487 382.939L125.105 384.32C124.803 384.096 124.488 383.987 124.16 383.994C123.833 383.996 123.535 384.131 123.267 384.399C123.04 384.626 122.904 384.886 122.858 385.179C122.812 385.468 122.859 385.776 122.999 386.103C123.139 386.431 123.375 386.761 123.707 387.093C124.044 387.43 124.376 387.67 124.703 387.814C125.033 387.956 125.345 388.004 125.638 387.959C125.931 387.913 126.191 387.777 126.418 387.55C126.585 387.383 126.701 387.198 126.765 386.997C126.831 386.793 126.843 386.582 126.799 386.364C126.756 386.142 126.655 385.925 126.497 385.712L127.878 384.33C128.258 384.756 128.503 385.221 128.613 385.725C128.723 386.225 128.692 386.732 128.521 387.247C128.349 387.763 128.028 388.255 127.559 388.725Z" fill="#06DF73"/>
<path d="M121.225 395.031C120.998 395.257 120.724 395.372 120.401 395.374C120.078 395.372 119.803 395.257 119.576 395.031C119.351 394.806 119.239 394.534 119.239 394.213C119.242 393.89 119.356 393.615 119.583 393.388C119.803 393.168 120.075 393.056 120.401 393.052C120.726 393.047 121.001 393.157 121.225 393.381C121.376 393.533 121.476 393.71 121.524 393.914C121.572 394.113 121.572 394.313 121.524 394.512C121.474 394.709 121.374 394.882 121.225 395.031Z" fill="#06DF73"/>
<path d="M110.67 394.852L113.484 395.728L112.632 392.89L114.133 391.389L115.243 395.557L119.452 396.625L117.958 398.12L115.092 397.336L115.893 400.185L114.381 401.697L113.309 397.491L109.158 396.364L110.67 394.852Z" fill="#06DF73"/>
<path d="M111.544 404.738C111.001 405.281 110.424 405.639 109.813 405.81C109.201 405.978 108.587 405.964 107.971 405.769C107.352 405.572 106.765 405.195 106.208 404.639C105.665 404.096 105.294 403.514 105.095 402.893C104.896 402.273 104.873 401.656 105.026 401.045C105.182 400.431 105.519 399.865 106.037 399.347C106.385 398.999 106.765 398.731 107.177 398.543C107.59 398.351 108.019 398.254 108.466 398.251C108.915 398.247 109.371 398.35 109.833 398.561C110.294 398.769 110.748 399.098 111.197 399.547L111.599 399.949L107.143 404.405L106.236 403.498L109.314 400.419C109.104 400.209 108.871 400.068 108.617 399.997C108.363 399.926 108.108 399.926 107.854 399.997C107.6 400.063 107.366 400.203 107.153 400.416C106.931 400.638 106.786 400.887 106.717 401.162C106.648 401.432 106.652 401.701 106.727 401.969C106.8 402.235 106.94 402.473 107.146 402.684L108.009 403.546C108.27 403.807 108.544 403.985 108.83 404.079C109.119 404.17 109.404 404.178 109.686 404.103C109.967 404.027 110.231 403.867 110.476 403.622C110.638 403.459 110.764 403.287 110.854 403.106C110.943 402.925 110.99 402.741 110.995 402.553C110.999 402.365 110.96 402.18 110.878 401.997L112.321 400.732C112.577 401.126 112.721 401.551 112.75 402.007C112.78 402.458 112.695 402.919 112.496 403.388C112.297 403.853 111.98 404.303 111.544 404.738Z" fill="#06DF73"/>
<path d="M97.2878 407.169L96.0612 405.942L101.84 400.163L103.067 401.39L100.913 403.544L106.723 409.354L105.252 410.825L99.4421 405.015L97.2878 407.169Z" fill="#06DF73"/>
<path d="M142.787 626.104L140.08 623.397L140.485 622.991C140.529 622.801 140.506 622.59 140.417 622.359C140.33 622.125 140.2 621.877 140.028 621.613C139.859 621.348 139.661 621.076 139.434 620.799C139.207 620.517 138.975 620.237 138.736 619.957L137.149 618.095L141.197 614.047L145.313 618.164L146.131 617.346L148.838 620.053L147.443 621.448L145.897 619.902L142.671 623.129L144.217 624.675L142.787 626.104ZM141.942 621.534L143.932 619.545L140.942 616.556L139.52 617.978L140.063 618.631C140.587 619.233 141.01 619.768 141.331 620.235C141.649 620.7 141.853 621.133 141.942 621.534Z" fill="#06DF73"/>
<path d="M137.646 628.354C137.309 628.691 136.95 628.932 136.57 629.079C136.188 629.223 135.804 629.256 135.419 629.178C135.034 629.096 134.668 628.881 134.32 628.532C134.026 628.239 133.834 627.939 133.742 627.632C133.651 627.325 133.637 627.018 133.701 626.711C133.765 626.404 133.884 626.102 134.058 625.804C134.235 625.504 134.441 625.211 134.677 624.925C134.952 624.586 135.169 624.309 135.33 624.093C135.488 623.876 135.581 623.696 135.608 623.554C135.635 623.412 135.593 623.285 135.481 623.172L135.46 623.152C135.243 622.934 135.006 622.835 134.749 622.853C134.495 622.869 134.243 623.002 133.993 623.251C133.73 623.515 133.579 623.783 133.54 624.055C133.498 624.326 133.54 624.573 133.663 624.798L132.2 626.041C131.948 625.652 131.806 625.24 131.773 624.804C131.739 624.367 131.818 623.926 132.011 623.482C132.203 623.033 132.51 622.597 132.931 622.176C133.225 621.883 133.54 621.637 133.876 621.437C134.215 621.236 134.561 621.103 134.914 621.039C135.269 620.972 135.621 620.992 135.969 621.097C136.315 621.2 136.645 621.409 136.958 621.722L140.518 625.282L139.13 626.67L138.398 625.938L138.357 625.98C138.437 626.229 138.469 626.488 138.453 626.756C138.435 627.022 138.361 627.29 138.233 627.56C138.103 627.828 137.907 628.093 137.646 628.354ZM137.055 626.924C137.27 626.709 137.418 626.477 137.498 626.227C137.576 625.975 137.588 625.729 137.536 625.488C137.483 625.248 137.364 625.035 137.178 624.849L136.618 624.289C136.602 624.365 136.567 624.455 136.512 624.561C136.457 624.661 136.39 624.771 136.312 624.89C136.232 625.007 136.151 625.123 136.068 625.237C135.984 625.35 135.907 625.452 135.838 625.543C135.692 625.74 135.582 625.93 135.508 626.114C135.435 626.297 135.41 626.471 135.433 626.636C135.453 626.798 135.532 626.948 135.67 627.086C135.869 627.285 136.094 627.365 136.343 627.326C136.593 627.283 136.83 627.149 137.055 626.924Z" fill="#06DF73"/>
<path d="M129.883 635.916L128.715 634.762L128.89 634.587C129.014 634.463 129.09 634.327 129.12 634.178C129.15 634.024 129.126 633.849 129.048 633.652C128.97 633.455 128.835 633.226 128.643 632.965C128.448 632.701 128.189 632.397 127.866 632.051L125.615 629.628L129.629 625.615L134.906 630.893L133.511 632.288L129.385 628.161L128.083 629.464L129.612 631.157C130.033 631.62 130.359 632.054 130.591 632.46C130.824 632.863 130.968 633.242 131.02 633.597C131.071 633.95 131.037 634.281 130.921 634.59C130.804 634.899 130.604 635.195 130.323 635.476L129.883 635.916Z" fill="#06DF73"/>
<path d="M124.523 641.277L119.245 635.999L120.709 634.535L122.757 636.583L123.169 636.171L122.557 632.687L124.275 630.969L125.028 635.453L129.574 636.226L127.835 637.964L124.66 637.394L124.114 637.94L125.987 639.813L124.523 641.277Z" fill="#06DF73"/>
<path d="M118.91 637.743L117.405 639.248C117.183 639.081 116.954 638.964 116.718 638.897C116.48 638.829 116.24 638.807 116 638.832C115.759 638.857 115.523 638.928 115.292 639.045C115.063 639.16 114.848 639.318 114.646 639.519C114.282 639.884 114.055 640.291 113.966 640.743C113.874 641.192 113.926 641.662 114.12 642.155C114.313 642.645 114.653 643.134 115.141 643.622C115.643 644.124 116.139 644.471 116.629 644.663C117.121 644.853 117.59 644.9 118.034 644.804C118.478 644.708 118.878 644.482 119.233 644.127C119.432 643.928 119.591 643.717 119.707 643.495C119.826 643.27 119.902 643.041 119.934 642.808C119.964 642.572 119.949 642.337 119.889 642.103C119.832 641.867 119.727 641.638 119.573 641.416L121.085 639.918C121.369 640.28 121.583 640.689 121.728 641.145C121.872 641.596 121.932 642.07 121.906 642.567C121.881 643.06 121.757 643.554 121.535 644.051C121.313 644.544 120.976 645.016 120.525 645.467C119.897 646.095 119.194 646.514 118.415 646.725C117.639 646.933 116.838 646.911 116.014 646.659C115.191 646.405 114.398 645.895 113.633 645.13C112.865 644.363 112.357 643.566 112.107 642.739C111.857 641.912 111.839 641.11 112.052 640.334C112.263 639.555 112.677 638.856 113.296 638.238C113.704 637.83 114.139 637.509 114.602 637.276C115.067 637.04 115.544 636.897 116.034 636.846C116.522 636.793 117.009 636.84 117.495 636.987C117.982 637.131 118.454 637.383 118.91 637.743Z" fill="#06DF73"/>
<path d="M680.868 376.745L676.996 372.873L676.068 373.801C675.817 374.052 675.684 374.301 675.669 374.548C675.654 374.795 675.727 374.997 675.888 375.154C676.047 375.317 676.245 375.391 676.484 375.376C676.722 375.357 676.966 375.223 677.215 374.974L678.613 373.576L679.541 374.503L678.143 375.901C677.72 376.324 677.289 376.626 676.851 376.806C676.413 376.987 675.995 377.046 675.598 376.984C675.198 376.919 674.846 376.732 674.541 376.423C674.217 376.103 674.017 375.738 673.942 375.328C673.865 374.916 673.914 374.486 674.09 374.039C674.266 373.588 674.567 373.15 674.992 372.725L677.199 370.519L682.147 375.466L680.868 376.745ZM677.724 379.889L676.522 375.937L677.833 374.626L679.038 378.575L677.724 379.889Z" fill="#06DF73"/>
<path d="M671.924 382.068L670.568 377.149L671.921 375.796L676.869 380.744L675.561 382.052L672.414 378.904L673.786 383.826L672.423 385.189L667.476 380.241L668.787 378.93L671.924 382.068Z" fill="#06DF73"/>
<path d="M668.539 392.785L661.735 385.981L663.088 384.629L663.919 385.46L663.981 385.398C663.908 385.205 663.859 384.983 663.836 384.732C663.812 384.476 663.846 384.21 663.939 383.933C664.031 383.651 664.216 383.372 664.493 383.095C664.854 382.734 665.281 382.496 665.775 382.38C666.267 382.262 666.793 382.301 667.353 382.496C667.912 382.689 668.474 383.069 669.041 383.636C669.593 384.188 669.97 384.743 670.172 385.302C670.374 385.856 670.42 386.383 670.31 386.883C670.201 387.379 669.958 387.815 669.582 388.191C669.316 388.457 669.045 388.64 668.771 388.739C668.498 388.835 668.236 388.876 667.985 388.861C667.731 388.844 667.505 388.798 667.305 388.723L667.263 388.765L669.911 391.412L668.539 392.785ZM665.553 387.112C665.847 387.406 666.144 387.622 666.445 387.76C666.746 387.897 667.034 387.95 667.311 387.917C667.586 387.883 667.834 387.755 668.055 387.534C668.279 387.311 668.407 387.061 668.439 386.783C668.469 386.504 668.414 386.215 668.275 385.917C668.135 385.614 667.921 385.319 667.633 385.031C667.348 384.746 667.057 384.534 666.761 384.397C666.464 384.259 666.178 384.207 665.9 384.239C665.623 384.271 665.372 384.4 665.147 384.625C664.923 384.849 664.793 385.097 664.757 385.369C664.723 385.64 664.773 385.925 664.908 386.223C665.044 386.522 665.258 386.818 665.553 387.112Z" fill="#06DF73"/>
<path d="M663.452 394.353C662.952 394.854 662.413 395.18 661.835 395.333C661.258 395.481 660.679 395.462 660.099 395.278C659.517 395.091 658.973 394.744 658.466 394.237C657.955 393.726 657.607 393.181 657.422 392.601C657.235 392.019 657.217 391.44 657.368 390.865C657.518 390.285 657.843 389.745 658.344 389.244C658.844 388.744 659.383 388.42 659.961 388.272C660.538 388.119 661.118 388.136 661.7 388.323C662.28 388.508 662.825 388.856 663.336 389.367C663.843 389.874 664.19 390.418 664.377 391C664.562 391.58 664.579 392.16 664.428 392.739C664.278 393.315 663.953 393.853 663.452 394.353ZM662.396 393.284C662.623 393.056 662.749 392.802 662.773 392.52C662.794 392.237 662.731 391.944 662.583 391.641C662.437 391.336 662.22 391.04 661.932 390.752C661.644 390.464 661.348 390.247 661.043 390.101C660.74 389.953 660.447 389.89 660.164 389.911C659.88 389.933 659.625 390.057 659.397 390.285C659.167 390.515 659.039 390.773 659.014 391.061C658.99 391.347 659.051 391.642 659.197 391.947C659.345 392.25 659.563 392.545 659.851 392.833C660.139 393.121 660.434 393.339 660.737 393.487C661.042 393.633 661.337 393.694 661.623 393.67C661.908 393.642 662.166 393.514 662.396 393.284Z" fill="#06DF73"/>
<path d="M652.113 397.763L651.034 396.684L655.518 392.2L656.597 393.279L655.002 394.873L658.871 398.742L657.563 400.05L653.695 396.181L652.113 397.763Z" fill="#06DF73"/>
<path d="M652.721 405.079C652.405 405.395 652.069 405.621 651.713 405.759C651.354 405.894 650.994 405.925 650.634 405.852C650.273 405.775 649.929 405.573 649.603 405.247C649.328 404.972 649.148 404.69 649.062 404.403C648.976 404.115 648.963 403.827 649.023 403.539C649.083 403.252 649.195 402.968 649.358 402.689C649.523 402.408 649.717 402.133 649.938 401.864C650.196 401.546 650.4 401.287 650.55 401.085C650.698 400.881 650.785 400.712 650.811 400.579C650.837 400.446 650.797 400.327 650.692 400.221L650.672 400.202C650.468 399.998 650.246 399.905 650.005 399.922C649.767 399.937 649.531 400.061 649.297 400.296C649.05 400.542 648.908 400.794 648.872 401.049C648.833 401.303 648.872 401.535 648.988 401.745L647.615 402.911C647.379 402.546 647.246 402.16 647.216 401.752C647.184 401.341 647.258 400.928 647.438 400.511C647.619 400.09 647.906 399.682 648.301 399.287C648.576 399.012 648.872 398.782 649.187 398.595C649.505 398.406 649.829 398.281 650.16 398.221C650.493 398.159 650.823 398.177 651.149 398.276C651.473 398.372 651.783 398.568 652.077 398.862L655.414 402.199L654.113 403.501L653.426 402.814L653.388 402.853C653.463 403.087 653.493 403.33 653.478 403.581C653.461 403.83 653.392 404.082 653.272 404.335C653.149 404.586 652.966 404.834 652.721 405.079ZM652.167 403.739C652.369 403.537 652.507 403.319 652.582 403.085C652.655 402.849 652.667 402.618 652.618 402.393C652.568 402.167 652.457 401.967 652.283 401.793L651.758 401.268C651.743 401.339 651.709 401.424 651.658 401.523C651.606 401.617 651.544 401.72 651.471 401.832C651.396 401.942 651.32 402.05 651.242 402.157C651.163 402.263 651.091 402.358 651.027 402.444C650.889 402.629 650.786 402.807 650.717 402.979C650.649 403.151 650.625 403.314 650.647 403.468C650.666 403.621 650.74 403.762 650.869 403.89C651.056 404.077 651.266 404.152 651.5 404.116C651.734 404.075 651.956 403.949 652.167 403.739Z" fill="#06DF73"/>
<path d="M647.332 413.992L640.529 407.188L641.882 405.836L642.713 406.667L642.774 406.605C642.701 406.412 642.653 406.19 642.629 405.939C642.605 405.683 642.64 405.417 642.732 405.14C642.824 404.858 643.009 404.579 643.286 404.302C643.647 403.941 644.074 403.703 644.568 403.587C645.06 403.469 645.586 403.508 646.146 403.703C646.705 403.896 647.267 404.276 647.834 404.843C648.386 405.395 648.763 405.95 648.965 406.509C649.167 407.063 649.213 407.59 649.104 408.09C648.994 408.586 648.751 409.022 648.376 409.398C648.109 409.664 647.839 409.847 647.564 409.946C647.291 410.042 647.029 410.083 646.778 410.068C646.524 410.051 646.298 410.005 646.098 409.93L646.056 409.972L648.704 412.619L647.332 413.992ZM644.346 408.319C644.64 408.613 644.937 408.829 645.238 408.967C645.539 409.104 645.828 409.157 646.105 409.124C646.379 409.09 646.628 408.962 646.849 408.741C647.072 408.518 647.2 408.268 647.232 407.991C647.262 407.711 647.207 407.423 647.068 407.124C646.928 406.821 646.714 406.526 646.427 406.238C646.141 405.953 645.85 405.741 645.554 405.604C645.257 405.466 644.971 405.414 644.694 405.446C644.417 405.478 644.165 405.607 643.94 405.832C643.717 406.056 643.587 406.304 643.55 406.576C643.516 406.847 643.566 407.132 643.702 407.43C643.837 407.729 644.052 408.025 644.346 408.319Z" fill="#06DF73"/>
<path d="M642.246 415.561C641.745 416.062 641.206 416.388 640.629 416.541C640.051 416.689 639.472 416.67 638.892 416.486C638.31 416.299 637.766 415.952 637.259 415.445C636.748 414.934 636.4 414.389 636.215 413.809C636.029 413.227 636.01 412.648 636.161 412.073C636.311 411.493 636.636 410.953 637.137 410.452C637.637 409.952 638.176 409.628 638.754 409.48C639.331 409.327 639.911 409.344 640.493 409.531C641.073 409.716 641.619 410.064 642.13 410.575C642.636 411.082 642.983 411.626 643.17 412.208C643.355 412.788 643.372 413.368 643.222 413.947C643.071 414.523 642.746 415.061 642.246 415.561ZM641.189 414.492C641.417 414.264 641.542 414.01 641.566 413.728C641.587 413.445 641.524 413.152 641.376 412.849C641.23 412.544 641.013 412.248 640.725 411.96C640.437 411.672 640.141 411.455 639.836 411.309C639.533 411.161 639.24 411.098 638.957 411.119C638.673 411.141 638.418 411.265 638.19 411.493C637.96 411.723 637.833 411.981 637.807 412.269C637.783 412.555 637.844 412.85 637.99 413.155C638.139 413.458 638.357 413.753 638.644 414.041C638.932 414.329 639.227 414.547 639.53 414.695C639.835 414.841 640.13 414.902 640.416 414.878C640.702 414.85 640.959 414.722 641.189 414.492Z" fill="#06DF73"/>
<path d="M631.69 412.393L633.005 412.87C632.981 413.126 632.912 413.366 632.799 413.592C632.683 413.815 632.515 414.053 632.296 414.307C632.079 414.558 631.805 414.855 631.475 415.199C631.097 415.586 630.847 415.958 630.724 416.317C630.602 416.675 630.605 417.044 630.734 417.422C630.86 417.797 631.107 418.208 631.475 418.652L631.523 418.604C631.368 418.153 631.343 417.71 631.446 417.277C631.551 416.841 631.802 416.424 632.199 416.027C632.62 415.606 633.081 415.33 633.581 415.199C634.084 415.066 634.596 415.084 635.118 415.254C635.64 415.423 636.142 415.75 636.625 416.233C637.128 416.736 637.466 417.271 637.64 417.84C637.814 418.405 637.823 418.97 637.666 419.535C637.507 420.097 637.178 420.628 636.68 421.126C636.18 421.626 635.643 421.953 635.07 422.105C634.498 422.256 633.909 422.224 633.301 422.012C632.696 421.797 632.093 421.39 631.494 420.791L631.088 420.385C629.896 419.193 629.245 418.078 629.133 417.038C629.021 415.999 629.411 415.025 630.302 414.117C630.543 413.868 630.763 413.645 630.962 413.45C631.162 413.254 631.325 413.072 631.452 412.902C631.581 412.73 631.66 412.561 631.69 412.393ZM635.624 420.057C635.834 419.846 635.96 419.611 636 419.351C636.043 419.089 636.004 418.815 635.881 418.53C635.761 418.242 635.559 417.956 635.276 417.673C634.994 417.392 634.714 417.195 634.435 417.083C634.156 416.967 633.888 416.934 633.633 416.984C633.377 417.033 633.143 417.164 632.931 417.377C632.772 417.535 632.658 417.707 632.589 417.892C632.52 418.077 632.498 418.271 632.522 418.475C632.545 418.675 632.615 418.882 632.731 419.097C632.847 419.307 633.01 419.518 633.221 419.728C633.644 420.151 634.069 420.394 634.496 420.456C634.924 420.514 635.299 420.381 635.624 420.057Z" fill="#06DF73"/>
<path d="M630.584 427.216C630.268 427.531 629.932 427.758 629.576 427.895C629.217 428.031 628.857 428.062 628.497 427.989C628.136 427.912 627.792 427.71 627.466 427.383C627.191 427.108 627.011 426.827 626.925 426.539C626.839 426.252 626.826 425.964 626.886 425.676C626.946 425.388 627.058 425.105 627.221 424.826C627.386 424.544 627.58 424.269 627.801 424.001C628.059 423.683 628.263 423.423 628.413 423.221C628.561 423.017 628.648 422.849 628.674 422.716C628.7 422.583 628.66 422.463 628.555 422.358L628.535 422.339C628.331 422.135 628.109 422.041 627.869 422.059C627.63 422.074 627.394 422.198 627.16 422.432C626.913 422.679 626.771 422.93 626.735 423.186C626.696 423.439 626.735 423.671 626.851 423.882L625.478 425.048C625.242 424.683 625.109 424.296 625.079 423.888C625.047 423.478 625.121 423.065 625.301 422.648C625.482 422.227 625.769 421.819 626.165 421.424C626.439 421.149 626.735 420.918 627.05 420.731C627.368 420.542 627.692 420.418 628.023 420.358C628.356 420.296 628.686 420.314 629.012 420.413C629.336 420.509 629.646 420.705 629.94 420.999L633.277 424.336L631.976 425.637L631.289 424.951L631.251 424.99C631.326 425.224 631.356 425.467 631.341 425.718C631.324 425.967 631.255 426.218 631.135 426.472C631.012 426.723 630.829 426.971 630.584 427.216ZM630.03 425.876C630.232 425.674 630.37 425.456 630.445 425.222C630.518 424.986 630.53 424.755 630.481 424.529C630.432 424.304 630.32 424.104 630.146 423.93L629.621 423.405C629.606 423.476 629.573 423.561 629.521 423.66C629.469 423.754 629.407 423.857 629.334 423.969C629.259 424.078 629.183 424.187 629.105 424.294C629.026 424.399 628.954 424.495 628.89 424.581C628.752 424.765 628.649 424.944 628.58 425.115C628.512 425.287 628.488 425.451 628.51 425.605C628.529 425.758 628.603 425.898 628.732 426.027C628.919 426.214 629.129 426.289 629.363 426.253C629.597 426.212 629.819 426.086 630.03 425.876Z" fill="#06DF73"/>
<path d="M622.122 435.492L621.001 434.371L621.172 434.168C621.393 433.908 621.496 433.622 621.481 433.311C621.464 432.997 621.311 432.624 621.023 432.19C620.736 431.752 620.297 431.216 619.706 430.582L616.881 427.538L621.359 423.061L627.956 429.658L626.599 431.014L621.12 425.535L619.294 427.361L621.487 429.761C622.192 430.534 622.707 431.226 623.034 431.835C623.362 432.443 623.484 433.012 623.401 433.543C623.319 434.071 623.013 434.6 622.483 435.131L622.122 435.492Z" fill="#06DF73"/>
<path d="M328.162 191.949L325.932 186.86L327.045 185.747L330.265 193.082L329.293 194.055L322.005 190.787L323.115 189.677L328.162 191.949ZM322.781 190.011L328.059 195.288L326.661 196.687L321.383 191.409L322.781 190.011ZM331.574 191.773L326.296 186.496L327.678 185.115L332.955 190.392L331.574 191.773Z" fill="#06DF73"/>
<path d="M323.874 203.432C323.689 203.617 323.5 203.777 323.307 203.91C323.119 204.042 322.951 204.14 322.802 204.202L322.039 202.779C322.264 202.66 322.447 202.534 322.589 202.401C322.733 202.266 322.822 202.114 322.854 201.944C322.888 201.772 322.855 201.572 322.754 201.343L322.617 201.034L315.294 197.498L316.834 195.959L321.802 198.742L321.857 198.687L319.084 193.708L320.634 192.159L324.431 200.058C324.616 200.44 324.73 200.822 324.771 201.202C324.817 201.582 324.769 201.958 324.627 202.329C324.487 202.702 324.236 203.07 323.874 203.432Z" fill="#06DF73"/>
<path d="M314.733 204.753L313.286 199.506L314.729 198.063L320.007 203.341L318.612 204.736L315.255 201.379L316.719 206.629L315.265 208.082L309.988 202.805L311.386 201.406L314.733 204.753Z" fill="#06DF73"/>
<path d="M311.122 216.184L303.865 208.927L305.308 207.484L306.194 208.37L306.26 208.305C306.182 208.099 306.13 207.862 306.105 207.594C306.08 207.321 306.116 207.037 306.215 206.742C306.313 206.442 306.51 206.144 306.806 205.849C307.191 205.464 307.647 205.209 308.173 205.086C308.698 204.96 309.259 205.001 309.857 205.209C310.453 205.416 311.053 205.821 311.658 206.426C312.246 207.014 312.648 207.607 312.864 208.202C313.079 208.793 313.128 209.355 313.011 209.889C312.894 210.418 312.636 210.883 312.235 211.284C311.951 211.568 311.662 211.763 311.369 211.868C311.078 211.971 310.799 212.015 310.531 211.999C310.26 211.981 310.019 211.931 309.806 211.851L309.761 211.896L312.585 214.72L311.122 216.184ZM307.936 210.133C308.25 210.447 308.567 210.677 308.888 210.824C309.209 210.97 309.517 211.026 309.812 210.992C310.106 210.955 310.37 210.819 310.606 210.583C310.844 210.345 310.981 210.078 311.015 209.783C311.047 209.485 310.989 209.177 310.84 208.858C310.691 208.535 310.463 208.22 310.156 207.914C309.851 207.609 309.541 207.383 309.225 207.237C308.909 207.09 308.603 207.034 308.307 207.068C308.012 207.103 307.744 207.24 307.503 207.481C307.265 207.719 307.127 207.983 307.088 208.274C307.051 208.563 307.105 208.866 307.249 209.185C307.394 209.503 307.623 209.819 307.936 210.133Z" fill="#06DF73"/>
<path d="M299.346 215.748L298.195 214.597L302.977 209.814L304.128 210.965L302.428 212.666L306.554 216.792L305.159 218.187L301.033 214.061L299.346 215.748Z" fill="#06DF73"/>
<path d="M297.75 225.598L296.155 227.192L291.548 217.726L293.465 215.809L302.928 220.42L301.333 222.014L294.142 218.348L294.087 218.403L297.75 225.598ZM294.884 222.932L298.65 219.166L299.811 220.327L296.045 224.093L294.884 222.932Z" fill="#06DF73"/>
<path d="M123.968 812.257V812.092C123.971 811.525 124.021 811.073 124.118 810.737C124.219 810.4 124.364 810.127 124.556 809.92C124.747 809.713 124.977 809.525 125.246 809.357C125.446 809.227 125.626 809.092 125.785 808.953C125.944 808.814 126.07 808.66 126.164 808.492C126.258 808.32 126.305 808.129 126.305 807.918C126.305 807.695 126.251 807.499 126.144 807.33C126.038 807.162 125.893 807.032 125.712 806.941C125.534 806.851 125.336 806.805 125.119 806.805C124.909 806.805 124.709 806.852 124.522 806.946C124.334 807.037 124.18 807.173 124.06 807.355C123.94 807.533 123.875 807.755 123.866 808.02H121.883C121.899 807.372 122.055 806.838 122.349 806.417C122.644 805.992 123.035 805.676 123.521 805.469C124.006 805.259 124.543 805.153 125.129 805.153C125.774 805.153 126.344 805.26 126.839 805.474C127.335 805.685 127.724 805.991 128.006 806.392C128.287 806.794 128.428 807.278 128.428 807.845C128.428 808.224 128.365 808.561 128.239 808.856C128.116 809.148 127.942 809.407 127.719 809.633C127.495 809.857 127.231 810.059 126.927 810.241C126.671 810.393 126.46 810.552 126.295 810.717C126.133 810.882 126.012 811.073 125.931 811.29C125.853 811.507 125.812 811.775 125.809 812.092V812.257H123.968ZM124.93 815.367C124.606 815.367 124.329 815.254 124.099 815.027C123.872 814.797 123.76 814.522 123.763 814.201C123.76 813.884 123.872 813.612 124.099 813.385C124.329 813.158 124.606 813.045 124.93 813.045C125.237 813.045 125.508 813.158 125.741 813.385C125.974 813.612 126.093 813.884 126.096 814.201C126.093 814.415 126.036 814.611 125.926 814.789C125.819 814.964 125.678 815.105 125.503 815.212C125.328 815.315 125.137 815.367 124.93 815.367Z" fill="#06DF73"/>
<path d="M123.968 729.301V729.136C123.971 728.569 124.021 728.117 124.118 727.78C124.219 727.444 124.364 727.171 124.556 726.964C124.747 726.757 124.977 726.569 125.246 726.4C125.446 726.271 125.626 726.136 125.785 725.997C125.944 725.858 126.07 725.704 126.164 725.536C126.258 725.364 126.305 725.173 126.305 724.962C126.305 724.739 126.251 724.543 126.144 724.374C126.038 724.206 125.893 724.076 125.712 723.985C125.534 723.895 125.336 723.849 125.119 723.849C124.909 723.849 124.709 723.896 124.522 723.99C124.334 724.081 124.18 724.217 124.06 724.398C123.94 724.577 123.875 724.799 123.866 725.064H121.883C121.899 724.416 122.055 723.882 122.349 723.461C122.644 723.036 123.035 722.72 123.521 722.513C124.006 722.303 124.543 722.197 125.129 722.197C125.774 722.197 126.344 722.304 126.839 722.518C127.335 722.729 127.724 723.035 128.006 723.436C128.287 723.838 128.428 724.322 128.428 724.889C128.428 725.268 128.365 725.605 128.239 725.9C128.116 726.192 127.942 726.451 127.719 726.677C127.495 726.901 127.231 727.103 126.927 727.285C126.671 727.437 126.46 727.596 126.295 727.761C126.133 727.926 126.012 728.117 125.931 728.334C125.853 728.551 125.812 728.819 125.809 729.136V729.301H123.968ZM124.93 732.411C124.606 732.411 124.329 732.298 124.099 732.071C123.872 731.841 123.76 731.566 123.763 731.245C123.76 730.928 123.872 730.655 124.099 730.429C124.329 730.202 124.606 730.089 124.93 730.089C125.237 730.089 125.508 730.202 125.741 730.429C125.974 730.655 126.093 730.928 126.096 731.245C126.093 731.459 126.036 731.655 125.926 731.833C125.819 732.008 125.678 732.149 125.503 732.256C125.328 732.359 125.137 732.411 124.93 732.411Z" fill="#06DF73"/>
<path d="M98.3111 887.516V887.351C98.3144 886.784 98.3646 886.332 98.4618 885.995C98.5622 885.658 98.708 885.386 98.8991 885.179C99.0902 884.972 99.3202 884.784 99.5891 884.615C99.79 884.486 99.9697 884.351 100.128 884.212C100.287 884.073 100.414 883.919 100.507 883.75C100.601 883.579 100.648 883.388 100.648 883.177C100.648 882.953 100.595 882.757 100.488 882.589C100.381 882.421 100.237 882.291 100.056 882.2C99.8774 882.11 99.6798 882.064 99.4628 882.064C99.2522 882.064 99.053 882.111 98.8651 882.205C98.6772 882.296 98.5233 882.432 98.4035 882.613C98.2836 882.791 98.2188 883.013 98.2091 883.279H96.2266C96.2428 882.631 96.3983 882.097 96.693 881.675C96.9878 881.251 97.3782 880.935 97.8641 880.728C98.35 880.517 98.8861 880.412 99.4725 880.412C100.117 880.412 100.687 880.519 101.183 880.733C101.679 880.943 102.067 881.25 102.349 881.651C102.631 882.053 102.772 882.537 102.772 883.104C102.772 883.483 102.709 883.82 102.582 884.115C102.459 884.406 102.286 884.666 102.062 884.892C101.839 885.116 101.575 885.318 101.27 885.5C101.014 885.652 100.804 885.811 100.639 885.976C100.477 886.141 100.355 886.332 100.274 886.549C100.197 886.766 100.156 887.034 100.153 887.351V887.516H98.3111ZM99.2733 890.626C98.9493 890.626 98.6723 890.513 98.4423 890.286C98.2156 890.056 98.1038 889.781 98.1071 889.46C98.1038 889.142 98.2156 888.87 98.4423 888.644C98.6723 888.417 98.9493 888.303 99.2733 888.303C99.581 888.303 99.8515 888.417 100.085 888.644C100.318 888.87 100.436 889.142 100.439 889.46C100.436 889.674 100.38 889.87 100.269 890.048C100.162 890.223 100.022 890.364 99.8466 890.471C99.6717 890.574 99.4806 890.626 99.2733 890.626Z" fill="#06DF73"/>
<path d="M298.431 887.516V887.351C298.434 886.784 298.485 886.332 298.582 885.995C298.682 885.658 298.828 885.386 299.019 885.179C299.21 884.972 299.44 884.784 299.709 884.615C299.91 884.486 300.09 884.351 300.249 884.212C300.407 884.073 300.534 883.919 300.628 883.75C300.721 883.579 300.768 883.388 300.768 883.177C300.768 882.953 300.715 882.757 300.608 882.589C300.501 882.421 300.357 882.291 300.176 882.2C299.997 882.11 299.8 882.064 299.583 882.064C299.372 882.064 299.173 882.111 298.985 882.205C298.797 882.296 298.643 882.432 298.524 882.613C298.404 882.791 298.339 883.013 298.329 883.279H296.347C296.363 882.631 296.518 882.097 296.813 881.675C297.108 881.251 297.498 880.935 297.984 880.728C298.47 880.517 299.006 880.412 299.593 880.412C300.237 880.412 300.807 880.519 301.303 880.733C301.799 880.943 302.187 881.25 302.469 881.651C302.751 882.053 302.892 882.537 302.892 883.104C302.892 883.483 302.829 883.82 302.702 884.115C302.579 884.406 302.406 884.666 302.182 884.892C301.959 885.116 301.695 885.318 301.39 885.5C301.135 885.652 300.924 885.811 300.759 885.976C300.597 886.141 300.475 886.332 300.394 886.549C300.317 886.766 300.276 887.034 300.273 887.351V887.516H298.431ZM299.393 890.626C299.069 890.626 298.792 890.513 298.562 890.286C298.336 890.056 298.224 889.781 298.227 889.46C298.224 889.142 298.336 888.87 298.562 888.644C298.792 888.417 299.069 888.303 299.393 888.303C299.701 888.303 299.972 888.417 300.205 888.644C300.438 888.87 300.556 889.142 300.56 889.46C300.556 889.674 300.5 889.87 300.389 890.048C300.283 890.223 300.142 890.364 299.967 890.471C299.792 890.574 299.601 890.626 299.393 890.626Z" fill="#06DF73"/>
<path d="M298.431 812.257V812.092C298.434 811.525 298.485 811.073 298.582 810.737C298.682 810.4 298.828 810.127 299.019 809.92C299.21 809.713 299.44 809.525 299.709 809.357C299.91 809.227 300.09 809.092 300.249 808.953C300.407 808.814 300.534 808.66 300.628 808.492C300.721 808.32 300.768 808.129 300.768 807.918C300.768 807.695 300.715 807.499 300.608 807.33C300.501 807.162 300.357 807.032 300.176 806.941C299.997 806.851 299.8 806.805 299.583 806.805C299.372 806.805 299.173 806.852 298.985 806.946C298.797 807.037 298.643 807.173 298.524 807.355C298.404 807.533 298.339 807.755 298.329 808.02H296.347C296.363 807.372 296.518 806.838 296.813 806.417C297.108 805.992 297.498 805.676 297.984 805.469C298.47 805.259 299.006 805.153 299.593 805.153C300.237 805.153 300.807 805.26 301.303 805.474C301.799 805.685 302.187 805.991 302.469 806.392C302.751 806.794 302.892 807.278 302.892 807.845C302.892 808.224 302.829 808.561 302.702 808.856C302.579 809.148 302.406 809.407 302.182 809.633C301.959 809.857 301.695 810.059 301.39 810.241C301.135 810.393 300.924 810.552 300.759 810.717C300.597 810.882 300.475 811.073 300.394 811.29C300.317 811.507 300.276 811.775 300.273 812.092V812.257H298.431ZM299.393 815.367C299.069 815.367 298.792 815.254 298.562 815.027C298.336 814.797 298.224 814.522 298.227 814.201C298.224 813.884 298.336 813.612 298.562 813.385C298.792 813.158 299.069 813.045 299.393 813.045C299.701 813.045 299.972 813.158 300.205 813.385C300.438 813.612 300.556 813.884 300.56 814.201C300.556 814.415 300.5 814.611 300.389 814.789C300.283 814.964 300.142 815.105 299.967 815.212C299.792 815.315 299.601 815.367 299.393 815.367Z" fill="#06DF73"/>
<path d="M297.78 727.482V727.358C297.783 726.933 297.82 726.594 297.893 726.342C297.968 726.089 298.078 725.885 298.221 725.729C298.364 725.574 298.537 725.433 298.739 725.307C298.889 725.209 299.024 725.109 299.143 725.004C299.262 724.9 299.357 724.784 299.427 724.658C299.498 724.529 299.533 724.386 299.533 724.228C299.533 724.06 299.493 723.913 299.413 723.787C299.333 723.661 299.225 723.563 299.088 723.495C298.955 723.427 298.807 723.393 298.644 723.393C298.486 723.393 298.336 723.429 298.196 723.499C298.055 723.567 297.939 723.669 297.849 723.805C297.759 723.939 297.711 724.105 297.704 724.304H296.217C296.229 723.819 296.345 723.418 296.567 723.102C296.788 722.784 297.08 722.547 297.445 722.391C297.809 722.233 298.211 722.154 298.651 722.154C299.135 722.154 299.562 722.234 299.934 722.395C300.306 722.553 300.597 722.782 300.809 723.084C301.02 723.385 301.126 723.748 301.126 724.173C301.126 724.458 301.078 724.71 300.984 724.931C300.891 725.15 300.761 725.344 300.594 725.514C300.426 725.682 300.228 725.834 300 725.97C299.808 726.084 299.65 726.203 299.526 726.327C299.404 726.451 299.313 726.594 299.252 726.757C299.194 726.92 299.164 727.12 299.161 727.358V727.482H297.78ZM298.502 729.815C298.259 729.815 298.051 729.73 297.879 729.56C297.708 729.387 297.625 729.181 297.627 728.94C297.625 728.702 297.708 728.498 297.879 728.328C298.051 728.158 298.259 728.073 298.502 728.073C298.733 728.073 298.935 728.158 299.11 728.328C299.285 728.498 299.374 728.702 299.376 728.94C299.374 729.1 299.331 729.247 299.249 729.381C299.169 729.512 299.063 729.618 298.932 729.698C298.801 729.776 298.657 729.815 298.502 729.815Z" fill="#06DF73"/>
<path d="M298.431 631.807V631.642C298.434 631.075 298.485 630.623 298.582 630.286C298.682 629.949 298.828 629.677 299.019 629.47C299.21 629.263 299.44 629.075 299.709 628.906C299.91 628.777 300.09 628.642 300.249 628.503C300.407 628.364 300.534 628.21 300.628 628.041C300.721 627.87 300.768 627.679 300.768 627.468C300.768 627.244 300.715 627.048 300.608 626.88C300.501 626.712 300.357 626.582 300.176 626.491C299.997 626.401 299.8 626.355 299.583 626.355C299.372 626.355 299.173 626.402 298.985 626.496C298.797 626.587 298.643 626.723 298.524 626.904C298.404 627.082 298.339 627.304 298.329 627.57H296.347C296.363 626.922 296.518 626.388 296.813 625.967C297.108 625.542 297.498 625.226 297.984 625.019C298.47 624.808 299.006 624.703 299.593 624.703C300.237 624.703 300.807 624.81 301.303 625.024C301.799 625.234 302.187 625.541 302.469 625.942C302.751 626.344 302.892 626.828 302.892 627.395C302.892 627.774 302.829 628.111 302.702 628.406C302.579 628.697 302.406 628.957 302.182 629.183C301.959 629.407 301.695 629.609 301.39 629.791C301.135 629.943 300.924 630.102 300.759 630.267C300.597 630.432 300.475 630.623 300.394 630.84C300.317 631.057 300.276 631.325 300.273 631.642V631.807H298.431ZM299.393 634.917C299.069 634.917 298.792 634.804 298.562 634.577C298.336 634.347 298.224 634.072 298.227 633.751C298.224 633.433 298.336 633.161 298.562 632.935C298.792 632.708 299.069 632.594 299.393 632.594C299.701 632.594 299.972 632.708 300.205 632.935C300.438 633.161 300.556 633.433 300.56 633.751C300.556 633.965 300.5 634.161 300.389 634.339C300.283 634.514 300.142 634.655 299.967 634.762C299.792 634.865 299.601 634.917 299.393 634.917Z" fill="#06DF73"/>
<path d="M298.431 549.707V549.541C298.434 548.975 298.485 548.523 298.582 548.186C298.682 547.849 298.828 547.577 299.019 547.369C299.21 547.162 299.44 546.974 299.709 546.806C299.91 546.676 300.09 546.542 300.249 546.402C300.407 546.263 300.534 546.109 300.628 545.941C300.721 545.769 300.768 545.578 300.768 545.367C300.768 545.144 300.715 544.948 300.608 544.779C300.501 544.611 300.357 544.481 300.176 544.391C299.997 544.3 299.8 544.255 299.583 544.255C299.372 544.255 299.173 544.302 298.985 544.396C298.797 544.486 298.643 544.622 298.524 544.804C298.404 544.982 298.339 545.204 298.329 545.469H296.347C296.363 544.822 296.518 544.287 296.813 543.866C297.108 543.442 297.498 543.126 297.984 542.918C298.47 542.708 299.006 542.603 299.593 542.603C300.237 542.603 300.807 542.709 301.303 542.923C301.799 543.134 302.187 543.44 302.469 543.842C302.751 544.243 302.892 544.728 302.892 545.295C302.892 545.674 302.829 546.01 302.702 546.305C302.579 546.597 302.406 546.856 302.182 547.083C301.959 547.306 301.695 547.509 301.39 547.69C301.135 547.842 300.924 548.001 300.759 548.166C300.597 548.331 300.475 548.523 300.394 548.74C300.317 548.957 300.276 549.224 300.273 549.541V549.707H298.431ZM299.393 552.817C299.069 552.817 298.792 552.703 298.562 552.476C298.336 552.246 298.224 551.971 298.227 551.65C298.224 551.333 298.336 551.061 298.562 550.834C298.792 550.607 299.069 550.494 299.393 550.494C299.701 550.494 299.972 550.607 300.205 550.834C300.438 551.061 300.556 551.333 300.56 551.65C300.556 551.864 300.5 552.06 300.389 552.238C300.283 552.413 300.142 552.554 299.967 552.661C299.792 552.765 299.601 552.817 299.393 552.817Z" fill="#06DF73"/>
<path d="M128.244 549.707V549.541C128.247 548.975 128.297 548.523 128.394 548.186C128.495 547.849 128.64 547.577 128.832 547.369C129.023 547.162 129.253 546.974 129.522 546.806C129.722 546.676 129.902 546.542 130.061 546.402C130.22 546.263 130.346 546.109 130.44 545.941C130.534 545.769 130.581 545.578 130.581 545.367C130.581 545.144 130.527 544.948 130.421 544.779C130.314 544.611 130.169 544.481 129.988 544.391C129.81 544.3 129.612 544.255 129.395 544.255C129.185 544.255 128.985 544.302 128.798 544.396C128.61 544.486 128.456 544.622 128.336 544.804C128.216 544.982 128.151 545.204 128.142 545.469H126.159C126.175 544.822 126.331 544.287 126.626 543.866C126.92 543.442 127.311 543.126 127.797 542.918C128.283 542.708 128.819 542.603 129.405 542.603C130.05 542.603 130.62 542.709 131.115 542.923C131.611 543.134 132 543.44 132.282 543.842C132.563 544.243 132.704 544.728 132.704 545.295C132.704 545.674 132.641 546.01 132.515 546.305C132.392 546.597 132.218 546.856 131.995 547.083C131.771 547.306 131.507 547.509 131.203 547.69C130.947 547.842 130.736 548.001 130.571 548.166C130.409 548.331 130.288 548.523 130.207 548.74C130.129 548.957 130.089 549.224 130.085 549.541V549.707H128.244ZM129.206 552.817C128.882 552.817 128.605 552.703 128.375 552.476C128.148 552.246 128.036 551.971 128.04 551.65C128.036 551.333 128.148 551.061 128.375 550.834C128.605 550.607 128.882 550.494 129.206 550.494C129.514 550.494 129.784 550.607 130.017 550.834C130.25 551.061 130.369 551.333 130.372 551.65C130.369 551.864 130.312 552.06 130.202 552.238C130.095 552.413 129.954 552.554 129.779 552.661C129.604 552.765 129.413 552.817 129.206 552.817Z" fill="#06DF73"/>
<path d="M128.244 474.448V474.283C128.247 473.716 128.297 473.264 128.394 472.927C128.495 472.59 128.64 472.318 128.832 472.111C129.023 471.903 129.253 471.715 129.522 471.547C129.722 471.417 129.902 471.283 130.061 471.144C130.22 471.004 130.346 470.85 130.44 470.682C130.534 470.51 130.581 470.319 130.581 470.109C130.581 469.885 130.527 469.689 130.421 469.521C130.314 469.352 130.169 469.223 129.988 469.132C129.81 469.041 129.612 468.996 129.395 468.996C129.185 468.996 128.985 469.043 128.798 469.137C128.61 469.227 128.456 469.364 128.336 469.545C128.216 469.723 128.151 469.945 128.142 470.211H126.159C126.175 469.563 126.331 469.028 126.626 468.607C126.92 468.183 127.311 467.867 127.797 467.66C128.283 467.449 128.819 467.344 129.405 467.344C130.05 467.344 130.62 467.451 131.115 467.664C131.611 467.875 132 468.181 132.282 468.583C132.563 468.985 132.704 469.469 132.704 470.036C132.704 470.415 132.641 470.752 132.515 471.046C132.392 471.338 132.218 471.597 131.995 471.824C131.771 472.047 131.507 472.25 131.203 472.431C130.947 472.584 130.736 472.742 130.571 472.907C130.409 473.073 130.288 473.264 130.207 473.481C130.129 473.698 130.089 473.965 130.085 474.283V474.448H128.244ZM129.206 477.558C128.882 477.558 128.605 477.444 128.375 477.218C128.148 476.988 128.036 476.712 128.04 476.392C128.036 476.074 128.148 475.802 128.375 475.575C128.605 475.348 128.882 475.235 129.206 475.235C129.514 475.235 129.784 475.348 130.017 475.575C130.25 475.802 130.369 476.074 130.372 476.392C130.369 476.605 130.312 476.801 130.202 476.979C130.095 477.154 129.954 477.295 129.779 477.402C129.604 477.506 129.413 477.558 129.206 477.558Z" fill="#06DF73"/>
<path d="M127.388 223.871V223.705C127.392 223.139 127.442 222.687 127.539 222.35C127.639 222.013 127.785 221.741 127.976 221.533C128.168 221.326 128.398 221.138 128.666 220.97C128.867 220.84 129.047 220.706 129.206 220.566C129.364 220.427 129.491 220.273 129.585 220.105C129.679 219.933 129.726 219.742 129.726 219.531C129.726 219.308 129.672 219.112 129.565 218.944C129.458 218.775 129.314 218.645 129.133 218.555C128.955 218.464 128.757 218.419 128.54 218.419C128.329 218.419 128.13 218.466 127.942 218.56C127.754 218.65 127.601 218.786 127.481 218.968C127.361 219.146 127.296 219.368 127.286 219.634H125.304C125.32 218.986 125.476 218.451 125.77 218.03C126.065 217.606 126.455 217.29 126.941 217.082C127.427 216.872 127.963 216.767 128.55 216.767C129.194 216.767 129.765 216.874 130.26 217.087C130.756 217.298 131.145 217.604 131.426 218.006C131.708 218.407 131.849 218.892 131.849 219.459C131.849 219.838 131.786 220.174 131.66 220.469C131.537 220.761 131.363 221.02 131.14 221.247C130.916 221.47 130.652 221.673 130.348 221.854C130.092 222.006 129.881 222.165 129.716 222.33C129.554 222.496 129.433 222.687 129.352 222.904C129.274 223.121 129.233 223.388 129.23 223.705V223.871H127.388ZM128.351 226.981C128.027 226.981 127.75 226.867 127.52 226.64C127.293 226.41 127.181 226.135 127.184 225.814C127.181 225.497 127.293 225.225 127.52 224.998C127.75 224.771 128.027 224.658 128.351 224.658C128.658 224.658 128.929 224.771 129.162 224.998C129.395 225.225 129.513 225.497 129.517 225.814C129.513 226.028 129.457 226.224 129.347 226.402C129.24 226.577 129.099 226.718 128.924 226.825C128.749 226.929 128.558 226.981 128.351 226.981Z" fill="#06DF73"/>
<path d="M467.764 206.766V206.601C467.767 206.034 467.817 205.582 467.914 205.245C468.015 204.908 468.16 204.636 468.351 204.429C468.543 204.222 468.773 204.034 469.041 203.865C469.242 203.736 469.422 203.601 469.581 203.462C469.74 203.323 469.866 203.169 469.96 203C470.054 202.829 470.101 202.638 470.101 202.427C470.101 202.203 470.047 202.007 469.94 201.839C469.834 201.671 469.689 201.541 469.508 201.45C469.33 201.36 469.132 201.314 468.915 201.314C468.705 201.314 468.505 201.361 468.317 201.455C468.13 201.546 467.976 201.682 467.856 201.863C467.736 202.041 467.671 202.263 467.661 202.529H465.679C465.695 201.881 465.851 201.347 466.145 200.925C466.44 200.501 466.831 200.185 467.316 199.978C467.802 199.767 468.339 199.662 468.925 199.662C469.569 199.662 470.14 199.769 470.635 199.983C471.131 200.193 471.52 200.5 471.801 200.901C472.083 201.303 472.224 201.787 472.224 202.354C472.224 202.733 472.161 203.07 472.035 203.365C471.912 203.656 471.738 203.916 471.515 204.142C471.291 204.366 471.027 204.568 470.723 204.75C470.467 204.902 470.256 205.061 470.091 205.226C469.929 205.391 469.808 205.582 469.727 205.799C469.649 206.016 469.608 206.284 469.605 206.601V206.766H467.764ZM468.726 209.876C468.402 209.876 468.125 209.763 467.895 209.536C467.668 209.306 467.556 209.031 467.559 208.71C467.556 208.392 467.668 208.12 467.895 207.894C468.125 207.667 468.402 207.553 468.726 207.553C469.033 207.553 469.304 207.667 469.537 207.894C469.77 208.12 469.889 208.392 469.892 208.71C469.889 208.924 469.832 209.12 469.722 209.298C469.615 209.473 469.474 209.614 469.299 209.721C469.124 209.824 468.933 209.876 468.726 209.876Z" fill="#06DF73"/>
<path d="M661.042 206.766V206.601C661.045 206.034 661.095 205.582 661.192 205.245C661.293 204.908 661.439 204.636 661.63 204.429C661.821 204.222 662.051 204.034 662.32 203.865C662.521 203.736 662.7 203.601 662.859 203.462C663.018 203.323 663.144 203.169 663.238 203C663.332 202.829 663.379 202.638 663.379 202.427C663.379 202.203 663.326 202.007 663.219 201.839C663.112 201.671 662.968 201.541 662.786 201.45C662.608 201.36 662.41 201.314 662.193 201.314C661.983 201.314 661.784 201.361 661.596 201.455C661.408 201.546 661.254 201.682 661.134 201.863C661.014 202.041 660.949 202.263 660.94 202.529H658.957C658.973 201.881 659.129 201.347 659.424 200.925C659.718 200.501 660.109 200.185 660.595 199.978C661.081 199.767 661.617 199.662 662.203 199.662C662.848 199.662 663.418 199.769 663.914 199.983C664.409 200.193 664.798 200.5 665.08 200.901C665.362 201.303 665.503 201.787 665.503 202.354C665.503 202.733 665.439 203.07 665.313 203.365C665.19 203.656 665.017 203.916 664.793 204.142C664.57 204.366 664.306 204.568 664.001 204.75C663.745 204.902 663.535 205.061 663.369 205.226C663.207 205.391 663.086 205.582 663.005 205.799C662.927 206.016 662.887 206.284 662.883 206.601V206.766H661.042ZM662.004 209.876C661.68 209.876 661.403 209.763 661.173 209.536C660.946 209.306 660.834 209.031 660.838 208.71C660.834 208.392 660.946 208.12 661.173 207.894C661.403 207.667 661.68 207.553 662.004 207.553C662.312 207.553 662.582 207.667 662.815 207.894C663.049 208.12 663.167 208.392 663.17 208.71C663.167 208.924 663.11 209.12 663 209.298C662.893 209.473 662.752 209.614 662.577 209.721C662.402 209.824 662.211 209.876 662.004 209.876Z" fill="#06DF73"/>
<path d="M558.416 409.452V409.287C558.419 408.72 558.47 408.268 558.567 407.931C558.667 407.594 558.813 407.322 559.004 407.115C559.195 406.907 559.425 406.719 559.694 406.551C559.895 406.421 560.075 406.287 560.234 406.148C560.392 406.008 560.519 405.854 560.613 405.686C560.706 405.514 560.753 405.323 560.753 405.113C560.753 404.889 560.7 404.693 560.593 404.525C560.486 404.356 560.342 404.227 560.161 404.136C559.982 404.045 559.785 404 559.568 404C559.357 404 559.158 404.047 558.97 404.141C558.782 404.231 558.628 404.367 558.509 404.549C558.389 404.727 558.324 404.949 558.314 405.215H556.332C556.348 404.567 556.503 404.032 556.798 403.611C557.093 403.187 557.483 402.871 557.969 402.664C558.455 402.453 558.991 402.348 559.578 402.348C560.222 402.348 560.792 402.455 561.288 402.668C561.784 402.879 562.172 403.185 562.454 403.587C562.736 403.988 562.877 404.473 562.877 405.04C562.877 405.419 562.814 405.756 562.687 406.05C562.564 406.342 562.391 406.601 562.167 406.828C561.944 407.051 561.68 407.254 561.375 407.435C561.12 407.587 560.909 407.746 560.744 407.911C560.582 408.077 560.46 408.268 560.379 408.485C560.302 408.702 560.261 408.969 560.258 409.287V409.452H558.416ZM559.378 412.562C559.054 412.562 558.777 412.448 558.547 412.221C558.321 411.991 558.209 411.716 558.212 411.395C558.209 411.078 558.321 410.806 558.547 410.579C558.777 410.352 559.054 410.239 559.378 410.239C559.686 410.239 559.957 410.352 560.19 410.579C560.423 410.806 560.541 411.078 560.545 411.395C560.541 411.609 560.485 411.805 560.374 411.983C560.268 412.158 560.127 412.299 559.952 412.406C559.777 412.51 559.586 412.562 559.378 412.562Z" fill="#06DF73"/>
<path d="M745.708 409.452V409.287C745.711 408.72 745.761 408.268 745.859 407.931C745.959 407.594 746.105 407.322 746.296 407.115C746.487 406.907 746.717 406.719 746.986 406.551C747.187 406.421 747.367 406.287 747.525 406.148C747.684 406.008 747.81 405.854 747.904 405.686C747.998 405.514 748.045 405.323 748.045 405.113C748.045 404.889 747.992 404.693 747.885 404.525C747.778 404.356 747.634 404.227 747.452 404.136C747.274 404.045 747.077 404 746.86 404C746.649 404 746.45 404.047 746.262 404.141C746.074 404.231 745.92 404.367 745.8 404.549C745.68 404.727 745.616 404.949 745.606 405.215H743.623C743.64 404.567 743.795 404.032 744.09 403.611C744.385 403.187 744.775 402.871 745.261 402.664C745.747 402.453 746.283 402.348 746.869 402.348C747.514 402.348 748.084 402.455 748.58 402.668C749.075 402.879 749.464 403.185 749.746 403.587C750.028 403.988 750.169 404.473 750.169 405.04C750.169 405.419 750.105 405.756 749.979 406.05C749.856 406.342 749.683 406.601 749.459 406.828C749.236 407.051 748.972 407.254 748.667 407.435C748.411 407.587 748.201 407.746 748.035 407.911C747.874 408.077 747.752 408.268 747.671 408.485C747.593 408.702 747.553 408.969 747.55 409.287V409.452H745.708ZM746.67 412.562C746.346 412.562 746.069 412.448 745.839 412.221C745.612 411.991 745.501 411.716 745.504 411.395C745.501 411.078 745.612 410.806 745.839 410.579C746.069 410.352 746.346 410.239 746.67 410.239C746.978 410.239 747.248 410.352 747.482 410.579C747.715 410.806 747.833 411.078 747.836 411.395C747.833 411.609 747.776 411.805 747.666 411.983C747.559 412.158 747.418 412.299 747.243 412.406C747.069 412.51 746.877 412.562 746.67 412.562Z" fill="#06DF73"/>
<path d="M846.623 409.452V409.287C846.626 408.72 846.677 408.268 846.774 407.931C846.874 407.594 847.02 407.322 847.211 407.115C847.402 406.907 847.632 406.719 847.901 406.551C848.102 406.421 848.282 406.287 848.44 406.148C848.599 406.008 848.726 405.854 848.82 405.686C848.913 405.514 848.96 405.323 848.96 405.113C848.96 404.889 848.907 404.693 848.8 404.525C848.693 404.356 848.549 404.227 848.368 404.136C848.189 404.045 847.992 404 847.775 404C847.564 404 847.365 404.047 847.177 404.141C846.989 404.231 846.835 404.367 846.715 404.549C846.596 404.727 846.531 404.949 846.521 405.215H844.539C844.555 404.567 844.71 404.032 845.005 403.611C845.3 403.187 845.69 402.871 846.176 402.664C846.662 402.453 847.198 402.348 847.784 402.348C848.429 402.348 848.999 402.455 849.495 402.668C849.991 402.879 850.379 403.185 850.661 403.587C850.943 403.988 851.084 404.473 851.084 405.04C851.084 405.419 851.021 405.756 850.894 406.05C850.771 406.342 850.598 406.601 850.374 406.828C850.151 407.051 849.887 407.254 849.582 407.435C849.326 407.587 849.116 407.746 848.951 407.911C848.789 408.077 848.667 408.268 848.586 408.485C848.509 408.702 848.468 408.969 848.465 409.287V409.452H846.623ZM847.585 412.562C847.261 412.562 846.984 412.448 846.754 412.221C846.528 411.991 846.416 411.716 846.419 411.395C846.416 411.078 846.528 410.806 846.754 410.579C846.984 410.352 847.261 410.239 847.585 410.239C847.893 410.239 848.164 410.352 848.397 410.579C848.63 410.806 848.748 411.078 848.751 411.395C848.748 411.609 848.692 411.805 848.581 411.983C848.475 412.158 848.334 412.299 848.159 412.406C847.984 412.51 847.793 412.562 847.585 412.562Z" fill="#06DF73"/>
<path d="M937.276 409.452V409.287C937.279 408.72 937.329 408.268 937.426 407.931C937.527 407.594 937.673 407.322 937.864 407.115C938.055 406.907 938.285 406.719 938.554 406.551C938.755 406.421 938.934 406.287 939.093 406.148C939.252 406.008 939.378 405.854 939.472 405.686C939.566 405.514 939.613 405.323 939.613 405.113C939.613 404.889 939.56 404.693 939.453 404.525C939.346 404.356 939.202 404.227 939.02 404.136C938.842 404.045 938.644 404 938.427 404C938.217 404 938.018 404.047 937.83 404.141C937.642 404.231 937.488 404.367 937.368 404.549C937.248 404.727 937.183 404.949 937.174 405.215H935.191C935.207 404.567 935.363 404.032 935.658 403.611C935.952 403.187 936.343 402.871 936.829 402.664C937.315 402.453 937.851 402.348 938.437 402.348C939.082 402.348 939.652 402.455 940.148 402.668C940.643 402.879 941.032 403.185 941.314 403.587C941.596 403.988 941.737 404.473 941.737 405.04C941.737 405.419 941.673 405.756 941.547 406.05C941.424 406.342 941.251 406.601 941.027 406.828C940.804 407.051 940.54 407.254 940.235 407.435C939.979 407.587 939.769 407.746 939.603 407.911C939.441 408.077 939.32 408.268 939.239 408.485C939.161 408.702 939.121 408.969 939.117 409.287V409.452H937.276ZM938.238 412.562C937.914 412.562 937.637 412.448 937.407 412.221C937.18 411.991 937.068 411.716 937.072 411.395C937.068 411.078 937.18 410.806 937.407 410.579C937.637 410.352 937.914 410.239 938.238 410.239C938.546 410.239 938.816 410.352 939.049 410.579C939.283 410.806 939.401 411.078 939.404 411.395C939.401 411.609 939.344 411.805 939.234 411.983C939.127 412.158 938.986 412.299 938.811 412.406C938.636 412.51 938.445 412.562 938.238 412.562Z" fill="#06DF73"/>
<path d="M846.623 206.766V206.601C846.626 206.034 846.677 205.582 846.774 205.245C846.874 204.908 847.02 204.636 847.211 204.429C847.402 204.222 847.632 204.034 847.901 203.865C848.102 203.736 848.282 203.601 848.44 203.462C848.599 203.323 848.726 203.169 848.82 203C848.913 202.829 848.96 202.638 848.96 202.427C848.96 202.203 848.907 202.007 848.8 201.839C848.693 201.671 848.549 201.541 848.368 201.45C848.189 201.36 847.992 201.314 847.775 201.314C847.564 201.314 847.365 201.361 847.177 201.455C846.989 201.546 846.835 201.682 846.715 201.863C846.596 202.041 846.531 202.263 846.521 202.529H844.539C844.555 201.881 844.71 201.347 845.005 200.925C845.3 200.501 845.69 200.185 846.176 199.978C846.662 199.767 847.198 199.662 847.784 199.662C848.429 199.662 848.999 199.769 849.495 199.983C849.991 200.193 850.379 200.5 850.661 200.901C850.943 201.303 851.084 201.787 851.084 202.354C851.084 202.733 851.021 203.07 850.894 203.365C850.771 203.656 850.598 203.916 850.374 204.142C850.151 204.366 849.887 204.568 849.582 204.75C849.326 204.902 849.116 205.061 848.951 205.226C848.789 205.391 848.667 205.582 848.586 205.799C848.509 206.016 848.468 206.284 848.465 206.601V206.766H846.623ZM847.585 209.876C847.261 209.876 846.984 209.763 846.754 209.536C846.528 209.306 846.416 209.031 846.419 208.71C846.416 208.392 846.528 208.12 846.754 207.894C846.984 207.667 847.261 207.553 847.585 207.553C847.893 207.553 848.164 207.667 848.397 207.894C848.63 208.12 848.748 208.392 848.751 208.71C848.748 208.924 848.692 209.12 848.581 209.298C848.475 209.473 848.334 209.614 848.159 209.721C847.984 209.824 847.793 209.876 847.585 209.876Z" fill="#06DF73"/>
<path d="M558.416 206.766V206.601C558.419 206.034 558.47 205.582 558.567 205.245C558.667 204.908 558.813 204.636 559.004 204.429C559.195 204.222 559.425 204.034 559.694 203.865C559.895 203.736 560.075 203.601 560.234 203.462C560.392 203.323 560.519 203.169 560.613 203C560.706 202.829 560.753 202.638 560.753 202.427C560.753 202.203 560.7 202.007 560.593 201.839C560.486 201.671 560.342 201.541 560.161 201.45C559.982 201.36 559.785 201.314 559.568 201.314C559.357 201.314 559.158 201.361 558.97 201.455C558.782 201.546 558.628 201.682 558.509 201.863C558.389 202.041 558.324 202.263 558.314 202.529H556.332C556.348 201.881 556.503 201.347 556.798 200.925C557.093 200.501 557.483 200.185 557.969 199.978C558.455 199.767 558.991 199.662 559.578 199.662C560.222 199.662 560.792 199.769 561.288 199.983C561.784 200.193 562.172 200.5 562.454 200.901C562.736 201.303 562.877 201.787 562.877 202.354C562.877 202.733 562.814 203.07 562.687 203.365C562.564 203.656 562.391 203.916 562.167 204.142C561.944 204.366 561.68 204.568 561.375 204.75C561.12 204.902 560.909 205.061 560.744 205.226C560.582 205.391 560.46 205.582 560.379 205.799C560.302 206.016 560.261 206.284 560.258 206.601V206.766H558.416ZM559.378 209.876C559.054 209.876 558.777 209.763 558.547 209.536C558.321 209.306 558.209 209.031 558.212 208.71C558.209 208.392 558.321 208.12 558.547 207.894C558.777 207.667 559.054 207.553 559.378 207.553C559.686 207.553 559.957 207.667 560.19 207.894C560.423 208.12 560.541 208.392 560.545 208.71C560.541 208.924 560.485 209.12 560.374 209.298C560.268 209.473 560.127 209.614 559.952 209.721C559.777 209.824 559.586 209.876 559.378 209.876Z" fill="#06DF73"/>
<path d="M751.694 206.766V206.601C751.698 206.034 751.748 205.582 751.845 205.245C751.945 204.908 752.091 204.636 752.282 204.429C752.473 204.222 752.703 204.034 752.972 203.865C753.173 203.736 753.353 203.601 753.512 203.462C753.67 203.323 753.797 203.169 753.891 203C753.985 202.829 754.032 202.638 754.032 202.427C754.032 202.203 753.978 202.007 753.871 201.839C753.764 201.671 753.62 201.541 753.439 201.45C753.261 201.36 753.063 201.314 752.846 201.314C752.635 201.314 752.436 201.361 752.248 201.455C752.06 201.546 751.907 201.682 751.787 201.863C751.667 202.041 751.602 202.263 751.592 202.529H749.61C749.626 201.881 749.781 201.347 750.076 200.925C750.371 200.501 750.761 200.185 751.247 199.978C751.733 199.767 752.269 199.662 752.856 199.662C753.5 199.662 754.071 199.769 754.566 199.983C755.062 200.193 755.451 200.5 755.732 200.901C756.014 201.303 756.155 201.787 756.155 202.354C756.155 202.733 756.092 203.07 755.966 203.365C755.842 203.656 755.669 203.916 755.446 204.142C755.222 204.366 754.958 204.568 754.654 204.75C754.398 204.902 754.187 205.061 754.022 205.226C753.86 205.391 753.738 205.582 753.657 205.799C753.58 206.016 753.539 206.284 753.536 206.601V206.766H751.694ZM752.657 209.876C752.333 209.876 752.056 209.763 751.826 209.536C751.599 209.306 751.487 209.031 751.49 208.71C751.487 208.392 751.599 208.12 751.826 207.894C752.056 207.667 752.333 207.553 752.657 207.553C752.964 207.553 753.235 207.667 753.468 207.894C753.701 208.12 753.819 208.392 753.823 208.71C753.819 208.924 753.763 209.12 753.653 209.298C753.546 209.473 753.405 209.614 753.23 209.721C753.055 209.824 752.864 209.876 752.657 209.876Z" fill="#06DF73"/>
<path d="M937.276 206.766V206.601C937.279 206.034 937.329 205.582 937.426 205.245C937.527 204.908 937.673 204.636 937.864 204.429C938.055 204.222 938.285 204.034 938.554 203.865C938.755 203.736 938.934 203.601 939.093 203.462C939.252 203.323 939.378 203.169 939.472 203C939.566 202.829 939.613 202.638 939.613 202.427C939.613 202.203 939.56 202.007 939.453 201.839C939.346 201.671 939.202 201.541 939.02 201.45C938.842 201.36 938.644 201.314 938.427 201.314C938.217 201.314 938.018 201.361 937.83 201.455C937.642 201.546 937.488 201.682 937.368 201.863C937.248 202.041 937.183 202.263 937.174 202.529H935.191C935.207 201.881 935.363 201.347 935.658 200.925C935.952 200.501 936.343 200.185 936.829 199.978C937.315 199.767 937.851 199.662 938.437 199.662C939.082 199.662 939.652 199.769 940.148 199.983C940.643 200.193 941.032 200.5 941.314 200.901C941.596 201.303 941.737 201.787 941.737 202.354C941.737 202.733 941.673 203.07 941.547 203.365C941.424 203.656 941.251 203.916 941.027 204.142C940.804 204.366 940.54 204.568 940.235 204.75C939.979 204.902 939.769 205.061 939.603 205.226C939.441 205.391 939.32 205.582 939.239 205.799C939.161 206.016 939.121 206.284 939.117 206.601V206.766H937.276ZM938.238 209.876C937.914 209.876 937.637 209.763 937.407 209.536C937.18 209.306 937.068 209.031 937.072 208.71C937.068 208.392 937.18 208.12 937.407 207.894C937.637 207.667 937.914 207.553 938.238 207.553C938.546 207.553 938.816 207.667 939.049 207.894C939.283 208.12 939.401 208.392 939.404 208.71C939.401 208.924 939.344 209.12 939.234 209.298C939.127 209.473 938.986 209.614 938.811 209.721C938.636 209.824 938.445 209.876 938.238 209.876Z" fill="#06DF73"/>
</g>
<defs>
<clipPath id="clip0_213_100">
<rect width="1024" height="1024" fill="white"/>
</clipPath>
</defs>
</svg>
