<svg width="1024" height="1024" viewBox="0 0 1024 1024" fill="none" xmlns="http://www.w3.org/2000/svg">
<g clip-path="url(#clip0_205_2)">
<rect width="1024" height="1024" fill="#040D06"/>
<line x1="102.5" y1="-2.17703e-08" x2="102.5" y2="1024" stroke="#071A0D"/>
<line x1="-4.37114e-08" y1="916" x2="1024" y2="916" stroke="#071A0D"/>
<line x1="306.5" y1="-2.17703e-08" x2="306.5" y2="1024" stroke="#071A0D"/>
<line x1="-4.37114e-08" y1="712" x2="1024" y2="712" stroke="#071A0D"/>
<line x1="510.5" y1="-2.17703e-08" x2="510.5" y2="1024" stroke="#071A0D"/>
<line x1="-4.37114e-08" y1="508" x2="1024" y2="508" stroke="#071A0D"/>
<line x1="714.5" y1="-2.17703e-08" x2="714.5" y2="1024" stroke="#071A0D"/>
<line x1="-4.37114e-08" y1="304" x2="1024" y2="304" stroke="#071A0D"/>
<line x1="918.5" y1="-2.17703e-08" x2="918.5" y2="1024" stroke="#071A0D"/>
<line x1="-4.37114e-08" y1="100" x2="1024" y2="99.9999" stroke="#071A0D"/>
<line x1="204.5" y1="-2.17703e-08" x2="204.5" y2="1024" stroke="#071A0D"/>
<line x1="-4.37114e-08" y1="814" x2="1024" y2="814" stroke="#071A0D"/>
<line x1="408.5" y1="-2.17703e-08" x2="408.5" y2="1024" stroke="#071A0D"/>
<line x1="-4.37114e-08" y1="610" x2="1024" y2="610" stroke="#071A0D"/>
<line x1="612.5" y1="-2.17703e-08" x2="612.5" y2="1024" stroke="#071A0D"/>
<line x1="-4.37114e-08" y1="406" x2="1024" y2="406" stroke="#071A0D"/>
<line x1="816.5" y1="-2.17703e-08" x2="816.5" y2="1024" stroke="#071A0D"/>
<line x1="-4.37114e-08" y1="202" x2="1024" y2="202" stroke="#071A0D"/>
<path d="M428.098 104.366V121.978H980.611V272.747H983.612V317.42H450.816V329.018H983.612V471.626H425.527V469.478H412.668V321.286H364.232V314.843H981.04V275.325H407.953V124.555H227.925V120.259H211.208V117.682H230.497V121.978H410.524V272.747H425.527V104.366H428.098ZM889.74 469.049H981.04V331.595H889.74V469.049ZM795.869 469.049H887.168V331.595H795.869V469.049ZM698.14 469.049H793.297V331.595H698.14V469.049ZM603.84 469.049H695.568V331.595H603.84V469.049ZM530.971 381.851H509.968V469.049H601.268V331.595H530.971V381.851ZM488.965 406.765H428.098V469.049H507.396V379.274H528.399V331.595H488.965V406.765ZM366.803 318.708H415.239V466.901H425.527V355.22H448.244V317.42H366.803V318.708ZM450.816 357.797H428.098V404.188H486.393V331.595H450.816V357.797ZM894.455 272.747H978.039V124.555H894.455V272.747ZM799.726 272.747H891.883V124.555H799.726V272.747ZM709.284 272.747H797.155V124.555H709.284V272.747ZM613.27 272.747H706.712V124.555H613.27V272.747ZM512.969 272.747H610.698V124.555H512.969V272.747ZM428.098 272.747H510.397V124.555H428.098V272.747Z" fill="#06DF73"/>
<path d="M204.894 323.249V668.41H52.308V665.834H202.316V323.249H204.894Z" fill="#06DF73"/>
<path d="M355.376 688.425V924.124H352.799V691.001H53.833V916.396H212.766V918.972H51.2557V688.425H355.376ZM212.337 116.994V324.358H53.833V667.817H51.2557V321.782H209.759V309.761H51.2557V116.994H212.337ZM53.833 307.185H209.759V119.57H53.833V307.185Z" fill="#06DF73"/>
<path d="M230.053 97V103.003H796.246V100.001H997.292V488.457H398.219L374.393 508.547V925.363H249.814V910.356H213.729V925.354L26 926.229V901.352H29.4367V709.268H26V665.535H29.8663V431.432H33.3029V329.816H28.1479V97H230.053ZM31.5846 326.386H36.7396V434.862H33.3029V668.965H29.4367V705.838H32.8734V904.782H29.4367V922.782L210.292 921.94V906.926H253.25V921.933H370.957V506.955L396.963 485.027H993.855V103.431H799.683V106.433H226.616V100.43H31.5846V326.386Z" fill="#06DF73"/>
<path d="M195.604 689.342V855.086H147.618V916.758H145.047V855.086H53.3603V852.516H193.033V762.577H53.3603V760.008H193.033V689.342H195.604ZM240.162 689.342H238.02V670.069H204.601V689.342H202.03V667.5H248.731V473.061H251.73V315.883H280.007V323.592H268.439V467.065H324.766L356.429 507.82L354.398 509.396L323.508 469.635H265.869V321.022H277.437V318.452H254.301V475.631H251.302V479.057H319.61L354.557 522.287V670.069H240.59V689.342H242.733V762.577H353.271V765.147H242.733V853.801H352.843V856.371H242.733V908.192H240.162V689.342ZM251.302 667.5H351.986V591.694H251.302V667.5ZM203.316 589.125V591.694H53.3603V589.125H203.316ZM251.302 589.125H351.986V523.196L318.382 481.627H251.302V589.125ZM203.316 507.323V509.893H53.3603V507.323H203.316ZM203.316 429.377V431.946H53.3603V429.377H203.316Z" fill="#06DF73"/>
<path d="M156.002 381.377C155.644 381.377 155.325 381.315 155.044 381.191C154.764 381.064 154.543 380.878 154.379 380.631C154.219 380.383 154.138 380.074 154.138 379.703C154.138 379.391 154.195 379.13 154.31 378.918C154.424 378.706 154.58 378.535 154.778 378.406C154.975 378.277 155.199 378.179 155.45 378.114C155.703 378.048 155.969 378.002 156.247 377.975C156.573 377.941 156.836 377.909 157.036 377.88C157.236 377.848 157.381 377.802 157.471 377.741C157.561 377.68 157.606 377.59 157.606 377.471V377.449C157.606 377.217 157.533 377.038 157.387 376.911C157.243 376.785 157.038 376.721 156.773 376.721C156.493 376.721 156.27 376.784 156.104 376.908C155.939 377.03 155.829 377.183 155.775 377.368L154.336 377.251C154.409 376.91 154.552 376.615 154.767 376.367C154.981 376.116 155.258 375.924 155.596 375.79C155.937 375.653 156.332 375.585 156.78 375.585C157.092 375.585 157.39 375.622 157.676 375.695C157.963 375.768 158.218 375.881 158.439 376.034C158.663 376.188 158.84 376.385 158.969 376.626C159.098 376.865 159.163 377.151 159.163 377.485V381.271H157.686V380.493H157.643C157.552 380.668 157.432 380.823 157.281 380.957C157.13 381.088 156.948 381.192 156.736 381.267C156.524 381.34 156.28 381.377 156.002 381.377ZM156.448 380.303C156.677 380.303 156.879 380.258 157.054 380.167C157.23 380.075 157.367 379.951 157.467 379.795C157.567 379.639 157.617 379.462 157.617 379.265V378.669C157.568 378.701 157.501 378.73 157.416 378.757C157.333 378.781 157.239 378.804 157.135 378.826C157.03 378.846 156.925 378.864 156.82 378.881C156.716 378.896 156.621 378.909 156.535 378.921C156.353 378.948 156.193 378.991 156.057 379.049C155.92 379.108 155.814 379.187 155.739 379.287C155.663 379.384 155.625 379.506 155.625 379.652C155.625 379.864 155.702 380.026 155.856 380.138C156.012 380.248 156.209 380.303 156.448 380.303Z" fill="#06DF73"/>
<path d="M152.747 373.598L153.222 374.614C153.064 374.745 152.888 374.843 152.696 374.906C152.503 374.967 152.273 375.007 152.005 375.026C151.739 375.046 151.415 375.059 151.033 375.067C150.599 375.072 150.246 375.141 149.973 375.275C149.7 375.409 149.493 375.62 149.352 375.907C149.211 376.192 149.118 376.565 149.074 377.025H149.129C149.297 376.682 149.534 376.416 149.838 376.229C150.145 376.041 150.524 375.947 150.975 375.947C151.452 375.947 151.87 376.052 152.228 376.262C152.588 376.471 152.869 376.772 153.068 377.164C153.268 377.556 153.368 378.027 153.368 378.575C153.368 379.145 153.256 379.641 153.032 380.062C152.81 380.481 152.495 380.806 152.085 381.038C151.676 381.267 151.189 381.381 150.624 381.381C150.056 381.381 149.566 381.262 149.155 381.023C148.745 380.784 148.429 380.432 148.205 379.967C147.983 379.502 147.872 378.929 147.872 378.25V377.789C147.872 376.437 148.135 375.435 148.661 374.782C149.188 374.129 149.961 373.797 150.982 373.788C151.26 373.783 151.51 373.782 151.735 373.784C151.959 373.786 152.155 373.775 152.323 373.751C152.493 373.727 152.635 373.676 152.747 373.598ZM150.631 380.175C150.87 380.175 151.074 380.113 151.245 379.989C151.418 379.865 151.551 379.687 151.643 379.455C151.738 379.224 151.786 378.947 151.786 378.626C151.786 378.307 151.738 378.036 151.643 377.815C151.551 377.591 151.418 377.42 151.245 377.303C151.072 377.186 150.865 377.128 150.624 377.128C150.443 377.128 150.281 377.161 150.138 377.226C149.994 377.292 149.871 377.39 149.769 377.519C149.669 377.645 149.591 377.802 149.535 377.99C149.481 378.175 149.454 378.387 149.454 378.626C149.454 379.106 149.558 379.485 149.765 379.762C149.974 380.038 150.263 380.175 150.631 380.175Z" fill="#06DF73"/>
<path d="M138.681 381.271L140.643 378.351L138.692 375.658H140.468L141.926 377.854H142.167V375.658H143.724V377.854H143.957L145.416 375.658H147.191L145.244 378.351L147.202 381.271H145.386L143.943 379.079H143.724V381.271H142.167V379.079H141.948L140.497 381.271H138.681Z" fill="#06DF73"/>
<path d="M133.978 383.376C133.78 383.376 133.595 383.36 133.422 383.328C133.252 383.299 133.11 383.261 132.998 383.215L133.349 382.053C133.532 382.109 133.696 382.14 133.842 382.145C133.991 382.149 134.119 382.115 134.226 382.042C134.336 381.969 134.425 381.845 134.493 381.669L134.584 381.432L132.571 375.658H134.208L135.37 379.78H135.428L136.601 375.658H138.25L136.068 381.878C135.963 382.18 135.821 382.443 135.64 382.667C135.463 382.894 135.237 383.068 134.964 383.19C134.691 383.314 134.363 383.376 133.978 383.376Z" fill="#06DF73"/>
<path d="M126.668 381.271L126.661 380.036H126.847C126.979 380.036 127.092 380.004 127.187 379.941C127.285 379.875 127.365 379.769 127.428 379.623C127.492 379.477 127.542 379.283 127.578 379.042C127.615 378.798 127.639 378.499 127.651 378.143L127.743 375.658H132.011V381.271H130.527V376.882H129.142L129.055 378.596C129.033 379.066 128.975 379.471 128.883 379.809C128.793 380.148 128.667 380.426 128.506 380.643C128.346 380.857 128.152 381.015 127.925 381.118C127.699 381.22 127.436 381.271 127.136 381.271H126.668Z" fill="#06DF73"/>
<path d="M123.494 381.381C122.919 381.381 122.424 381.259 122.01 381.015C121.598 380.769 121.282 380.428 121.06 379.992C120.841 379.556 120.731 379.054 120.731 378.486C120.731 377.912 120.842 377.407 121.064 376.974C121.288 376.538 121.606 376.198 122.017 375.954C122.429 375.708 122.919 375.585 123.486 375.585C123.976 375.585 124.405 375.674 124.773 375.852C125.141 376.03 125.432 376.279 125.646 376.601C125.86 376.922 125.979 377.3 126.001 377.734H124.532C124.49 377.454 124.38 377.228 124.203 377.058C124.027 376.885 123.797 376.798 123.512 376.798C123.271 376.798 123.06 376.864 122.88 376.996C122.702 377.125 122.563 377.313 122.463 377.562C122.363 377.81 122.313 378.111 122.313 378.465C122.313 378.823 122.362 379.127 122.46 379.378C122.559 379.629 122.7 379.82 122.88 379.952C123.06 380.083 123.271 380.149 123.512 380.149C123.69 380.149 123.849 380.113 123.991 380.039C124.134 379.966 124.253 379.86 124.345 379.722C124.44 379.58 124.502 379.411 124.532 379.214H126.001C125.976 379.642 125.859 380.02 125.65 380.346C125.443 380.67 125.156 380.924 124.791 381.107C124.426 381.289 123.993 381.381 123.494 381.381Z" fill="#06DF73"/>
<path d="M116.773 381.367C116.531 381.367 116.324 381.282 116.151 381.111C115.981 380.938 115.896 380.731 115.896 380.49C115.896 380.251 115.981 380.046 116.151 379.876C116.324 379.705 116.531 379.62 116.773 379.62C117.006 379.62 117.211 379.705 117.387 379.876C117.562 380.046 117.65 380.251 117.65 380.49C117.65 380.651 117.608 380.798 117.525 380.932C117.445 381.064 117.339 381.17 117.207 381.25C117.076 381.328 116.931 381.367 116.773 381.367Z" fill="#06DF73"/>
<path d="M111.255 375.658L112.285 377.621L113.341 375.658H114.938L113.312 378.465L114.982 381.271H113.392L112.285 379.331L111.196 381.271H109.588L111.255 378.465L109.647 375.658H111.255Z" fill="#06DF73"/>
<path d="M106.462 381.381C105.885 381.381 105.388 381.264 104.971 381.03C104.557 380.793 104.238 380.46 104.014 380.029C103.79 379.595 103.678 379.082 103.678 378.49C103.678 377.913 103.79 377.406 104.014 376.97C104.238 376.534 104.553 376.194 104.96 375.95C105.369 375.707 105.849 375.585 106.4 375.585C106.77 375.585 107.115 375.645 107.434 375.764C107.756 375.881 108.036 376.058 108.275 376.294C108.516 376.53 108.703 376.827 108.837 377.186C108.971 377.541 109.038 377.958 109.038 378.435V378.863H104.299V377.898H107.573C107.573 377.674 107.524 377.475 107.427 377.302C107.329 377.129 107.194 376.994 107.021 376.897C106.851 376.797 106.652 376.747 106.426 376.747C106.189 376.747 105.98 376.802 105.797 376.911C105.617 377.019 105.475 377.164 105.373 377.346C105.271 377.527 105.218 377.728 105.216 377.949V378.866C105.216 379.144 105.267 379.384 105.369 379.586C105.474 379.789 105.622 379.944 105.812 380.054C106.002 380.164 106.227 380.219 106.488 380.219C106.661 380.219 106.819 380.194 106.963 380.145C107.106 380.097 107.229 380.024 107.332 379.926C107.434 379.829 107.512 379.709 107.566 379.568L109.005 379.663C108.932 380.009 108.783 380.311 108.556 380.569C108.332 380.825 108.042 381.025 107.686 381.169C107.333 381.31 106.925 381.381 106.462 381.381Z" fill="#06DF73"/>
<path d="M97.5887 375.093V373.788H103.735V375.093H101.444V381.272H99.8799V375.093H97.5887Z" fill="#06DF73"/>
<path d="M682.061 408.713V404.32H681.008C680.723 404.32 680.506 404.386 680.358 404.517C680.209 404.649 680.136 404.805 680.138 404.985C680.136 405.168 680.207 405.323 680.35 405.449C680.497 405.574 680.711 405.636 680.994 405.636H682.579V406.688H680.994C680.514 406.688 680.098 406.615 679.747 406.469C679.397 406.323 679.126 406.119 678.936 405.859C678.746 405.595 678.652 405.29 678.655 404.941C678.652 404.576 678.746 404.256 678.936 403.98C679.126 403.703 679.398 403.487 679.751 403.333C680.107 403.178 680.526 403.1 681.008 403.1H683.511V408.713H682.061ZM678.494 408.713L680.054 405.789H681.542L679.985 408.713H678.494Z" fill="#06DF73"/>
<path d="M673.968 406.659L675.989 403.1H677.524V408.713H676.04V405.142L674.027 408.713H672.481V403.1H673.968V406.659Z" fill="#06DF73"/>
<path d="M665.969 410.818V403.1H667.504V404.043H667.573C667.642 403.892 667.74 403.739 667.869 403.583C668.001 403.424 668.171 403.293 668.381 403.188C668.593 403.081 668.856 403.027 669.17 403.027C669.58 403.027 669.957 403.135 670.303 403.349C670.649 403.561 670.926 403.881 671.133 404.31C671.34 404.736 671.443 405.271 671.443 405.914C671.443 406.54 671.342 407.069 671.14 407.5C670.94 407.929 670.667 408.254 670.321 408.476C669.978 408.695 669.593 408.805 669.167 408.805C668.865 408.805 668.607 408.755 668.396 408.655C668.186 408.555 668.014 408.43 667.88 408.279C667.746 408.125 667.644 407.97 667.573 407.814H667.526V410.818H665.969ZM667.493 405.907C667.493 406.241 667.539 406.532 667.632 406.78C667.724 407.029 667.858 407.222 668.034 407.361C668.209 407.498 668.422 407.566 668.673 407.566C668.927 407.566 669.141 407.496 669.316 407.358C669.492 407.216 669.625 407.021 669.715 406.773C669.807 406.522 669.854 406.233 669.854 405.907C669.854 405.583 669.809 405.298 669.718 405.052C669.628 404.806 669.495 404.613 669.32 404.474C669.145 404.336 668.929 404.266 668.673 404.266C668.42 404.266 668.206 404.333 668.03 404.467C667.857 404.601 667.724 404.791 667.632 405.037C667.539 405.283 667.493 405.573 667.493 405.907Z" fill="#06DF73"/>
<path d="M662.194 408.823C661.627 408.823 661.136 408.702 660.722 408.461C660.31 408.218 659.992 407.879 659.768 407.445C659.544 407.009 659.432 406.504 659.432 405.929C659.432 405.349 659.544 404.842 659.768 404.409C659.992 403.973 660.31 403.634 660.722 403.393C661.136 403.149 661.627 403.027 662.194 403.027C662.762 403.027 663.252 403.149 663.663 403.393C664.077 403.634 664.397 403.973 664.621 404.409C664.845 404.842 664.957 405.349 664.957 405.929C664.957 406.504 664.845 407.009 664.621 407.445C664.397 407.879 664.077 408.218 663.663 408.461C663.252 408.702 662.762 408.823 662.194 408.823ZM662.202 407.617C662.46 407.617 662.675 407.544 662.848 407.398C663.021 407.249 663.152 407.047 663.239 406.791C663.33 406.535 663.375 406.244 663.375 405.918C663.375 405.591 663.33 405.3 663.239 405.044C663.152 404.789 663.021 404.586 662.848 404.438C662.675 404.289 662.46 404.215 662.202 404.215C661.941 404.215 661.722 404.289 661.544 404.438C661.368 404.586 661.236 404.789 661.145 405.044C661.058 405.3 661.014 405.591 661.014 405.918C661.014 406.244 661.058 406.535 661.145 406.791C661.236 407.047 661.368 407.249 661.544 407.398C661.722 407.544 661.941 407.617 662.202 407.617Z" fill="#06DF73"/>
<path d="M653.829 404.324V403.1H658.915V404.324H657.107V408.713H655.623V404.324H653.829Z" fill="#06DF73"/>
<path d="M650.024 408.819C649.666 408.819 649.346 408.757 649.066 408.633C648.786 408.506 648.564 408.32 648.401 408.074C648.24 407.825 648.16 407.516 648.16 407.146C648.16 406.834 648.217 406.572 648.332 406.36C648.446 406.148 648.602 405.978 648.8 405.848C648.997 405.719 649.221 405.622 649.472 405.556C649.725 405.49 649.991 405.444 650.269 405.417C650.595 405.383 650.858 405.351 651.058 405.322C651.258 405.291 651.403 405.244 651.493 405.183C651.583 405.122 651.628 405.032 651.628 404.913V404.891C651.628 404.66 651.555 404.481 651.409 404.354C651.265 404.227 651.06 404.164 650.795 404.164C650.515 404.164 650.292 404.226 650.126 404.35C649.96 404.472 649.851 404.625 649.797 404.811L648.357 404.694C648.43 404.353 648.574 404.058 648.789 403.809C649.003 403.558 649.279 403.366 649.618 403.232C649.959 403.096 650.354 403.027 650.802 403.027C651.114 403.027 651.412 403.064 651.697 403.137C651.985 403.21 652.239 403.323 652.461 403.477C652.685 403.63 652.862 403.828 652.991 404.069C653.12 404.308 653.185 404.594 653.185 404.928V408.713H651.708V407.935H651.664C651.574 408.11 651.454 408.265 651.303 408.399C651.152 408.531 650.97 408.634 650.758 408.71C650.546 408.783 650.301 408.819 650.024 408.819ZM650.47 407.745C650.699 407.745 650.901 407.7 651.076 407.61C651.252 407.517 651.389 407.393 651.489 407.237C651.589 407.081 651.639 406.905 651.639 406.707V406.112C651.59 406.143 651.523 406.172 651.438 406.199C651.355 406.224 651.261 406.247 651.157 406.269C651.052 406.288 650.947 406.306 650.842 406.323C650.738 406.338 650.642 406.351 650.557 406.364C650.375 406.39 650.215 406.433 650.079 406.492C649.942 406.55 649.836 406.629 649.761 406.729C649.685 406.827 649.647 406.948 649.647 407.095C649.647 407.306 649.724 407.468 649.878 407.581C650.033 407.69 650.231 407.745 650.47 407.745Z" fill="#06DF73"/>
<path d="M641.911 410.818V403.1H643.446V404.043H643.516C643.584 403.892 643.682 403.739 643.812 403.583C643.943 403.424 644.114 403.293 644.323 403.188C644.535 403.081 644.798 403.027 645.113 403.027C645.522 403.027 645.899 403.135 646.245 403.349C646.591 403.561 646.868 403.881 647.075 404.31C647.282 404.736 647.385 405.271 647.385 405.914C647.385 406.54 647.284 407.069 647.082 407.5C646.882 407.929 646.61 408.254 646.264 408.476C645.92 408.695 645.535 408.805 645.109 408.805C644.807 408.805 644.55 408.755 644.338 408.655C644.128 408.555 643.957 408.43 643.823 408.279C643.689 408.125 643.586 407.97 643.516 407.814H643.468V410.818H641.911ZM643.435 405.907C643.435 406.241 643.481 406.532 643.574 406.78C643.667 407.029 643.801 407.222 643.976 407.361C644.151 407.498 644.365 407.566 644.616 407.566C644.869 407.566 645.083 407.496 645.259 407.358C645.434 407.216 645.567 407.021 645.657 406.773C645.75 406.522 645.796 406.233 645.796 405.907C645.796 405.583 645.751 405.298 645.661 405.052C645.571 404.806 645.438 404.613 645.262 404.474C645.087 404.336 644.871 404.266 644.616 404.266C644.362 404.266 644.148 404.333 643.972 404.467C643.799 404.601 643.667 404.791 643.574 405.037C643.481 405.283 643.435 405.573 643.435 405.907Z" fill="#06DF73"/>
<path d="M638.136 408.823C637.569 408.823 637.078 408.702 636.664 408.461C636.252 408.218 635.934 407.879 635.71 407.445C635.486 407.009 635.374 406.504 635.374 405.929C635.374 405.349 635.486 404.842 635.71 404.409C635.934 403.973 636.252 403.634 636.664 403.393C637.078 403.149 637.569 403.027 638.136 403.027C638.704 403.027 639.194 403.149 639.605 403.393C640.02 403.634 640.339 403.973 640.563 404.409C640.787 404.842 640.899 405.349 640.899 405.929C640.899 406.504 640.787 407.009 640.563 407.445C640.339 407.879 640.02 408.218 639.605 408.461C639.194 408.702 638.704 408.823 638.136 408.823ZM638.144 407.617C638.402 407.617 638.618 407.544 638.791 407.398C638.963 407.249 639.094 407.047 639.182 406.791C639.272 406.535 639.317 406.244 639.317 405.918C639.317 405.591 639.272 405.3 639.182 405.044C639.094 404.789 638.963 404.586 638.791 404.438C638.618 404.289 638.402 404.215 638.144 404.215C637.883 404.215 637.664 404.289 637.486 404.438C637.311 404.586 637.178 404.789 637.088 405.044C637 405.3 636.956 405.591 636.956 405.918C636.956 406.244 637 406.535 637.088 406.791C637.178 407.047 637.311 407.249 637.486 407.398C637.664 407.544 637.883 407.617 638.144 407.617Z" fill="#06DF73"/>
<path d="M633.946 401.038L634.421 402.054C634.263 402.186 634.087 402.283 633.895 402.346C633.702 402.407 633.472 402.447 633.204 402.467C632.939 402.486 632.615 402.5 632.232 402.507C631.798 402.512 631.445 402.581 631.172 402.715C630.9 402.849 630.692 403.06 630.551 403.348C630.41 403.633 630.317 404.005 630.273 404.466H630.328C630.496 404.122 630.733 403.857 631.037 403.669C631.344 403.482 631.723 403.388 632.174 403.388C632.651 403.388 633.069 403.493 633.427 403.702C633.788 403.912 634.068 404.212 634.268 404.605C634.467 404.997 634.567 405.467 634.567 406.015C634.567 406.585 634.455 407.081 634.231 407.502C634.009 407.921 633.694 408.247 633.285 408.478C632.875 408.707 632.388 408.822 631.823 408.822C631.255 408.822 630.766 408.702 630.354 408.464C629.945 408.225 629.628 407.873 629.404 407.407C629.182 406.942 629.071 406.37 629.071 405.69V405.23C629.071 403.877 629.334 402.875 629.86 402.222C630.387 401.569 631.16 401.238 632.181 401.228C632.459 401.223 632.71 401.222 632.934 401.224C633.158 401.227 633.354 401.216 633.522 401.192C633.693 401.167 633.834 401.116 633.946 401.038ZM631.83 407.616C632.069 407.616 632.274 407.554 632.444 407.429C632.617 407.305 632.75 407.127 632.842 406.896C632.937 406.664 632.985 406.388 632.985 406.066C632.985 405.747 632.937 405.477 632.842 405.255C632.75 405.031 632.617 404.86 632.444 404.743C632.271 404.627 632.064 404.568 631.823 404.568C631.643 404.568 631.481 404.601 631.337 404.667C631.193 404.733 631.07 404.83 630.968 404.959C630.868 405.086 630.79 405.243 630.734 405.43C630.68 405.616 630.653 405.828 630.653 406.066C630.653 406.546 630.757 406.925 630.964 407.203C631.174 407.478 631.462 407.616 631.83 407.616Z" fill="#06DF73"/>
<path d="M624.911 408.819C624.553 408.819 624.234 408.757 623.953 408.633C623.673 408.506 623.452 408.32 623.288 408.074C623.128 407.825 623.047 407.516 623.047 407.146C623.047 406.834 623.104 406.572 623.219 406.36C623.333 406.148 623.489 405.978 623.687 405.848C623.884 405.719 624.108 405.622 624.359 405.556C624.612 405.49 624.878 405.444 625.156 405.417C625.482 405.383 625.745 405.351 625.945 405.322C626.145 405.291 626.29 405.244 626.38 405.183C626.47 405.122 626.515 405.032 626.515 404.913V404.891C626.515 404.66 626.442 404.481 626.296 404.354C626.152 404.227 625.948 404.164 625.682 404.164C625.402 404.164 625.179 404.226 625.013 404.35C624.848 404.472 624.738 404.625 624.684 404.811L623.245 404.694C623.318 404.353 623.461 404.058 623.676 403.809C623.89 403.558 624.167 403.366 624.505 403.232C624.846 403.096 625.241 403.027 625.689 403.027C626.001 403.027 626.3 403.064 626.585 403.137C626.872 403.21 627.127 403.323 627.348 403.477C627.572 403.63 627.749 403.828 627.878 404.069C628.007 404.308 628.072 404.594 628.072 404.928V408.713H626.596V407.935H626.552C626.462 408.11 626.341 408.265 626.19 408.399C626.039 408.531 625.857 408.634 625.645 408.71C625.433 408.783 625.189 408.819 624.911 408.819ZM625.357 407.745C625.586 407.745 625.788 407.7 625.963 407.61C626.139 407.517 626.276 407.393 626.376 407.237C626.476 407.081 626.526 406.905 626.526 406.707V406.112C626.477 406.143 626.41 406.172 626.325 406.199C626.242 406.224 626.148 406.247 626.044 406.269C625.939 406.288 625.834 406.306 625.729 406.323C625.625 406.338 625.53 406.351 625.444 406.364C625.262 406.39 625.102 406.433 624.966 406.492C624.829 406.55 624.723 406.629 624.648 406.729C624.572 406.827 624.535 406.948 624.535 407.095C624.535 407.306 624.611 407.468 624.765 407.581C624.921 407.69 625.118 407.745 625.357 407.745Z" fill="#06DF73"/>
<path d="M615.417 408.713V407.442L615.629 407.423C615.902 407.402 616.122 407.298 616.29 407.113C616.459 406.925 616.584 406.627 616.667 406.218C616.752 405.806 616.807 405.253 616.831 404.559L616.956 401.229H622.035V408.713H620.497V402.498H618.425L618.308 405.103C618.269 405.941 618.169 406.626 618.008 407.157C617.85 407.688 617.596 408.08 617.248 408.333C616.902 408.587 616.428 408.713 615.826 408.713H615.417Z" fill="#06DF73"/>
<path d="M144.377 629.949L145.898 626.058H147.082L144.893 631.671H143.858L141.721 626.058H142.901L144.377 629.949ZM142.547 626.058V631.671H141.059V626.058H142.547ZM146.285 631.671V626.058H147.754V631.671H146.285Z" fill="#06DF73"/>
<path d="M135.991 633.775C135.794 633.775 135.608 633.76 135.435 633.728C135.265 633.699 135.124 633.661 135.012 633.615L135.362 632.453C135.545 632.509 135.71 632.539 135.856 632.544C136.004 632.549 136.132 632.515 136.239 632.442C136.349 632.369 136.438 632.244 136.506 632.069L136.598 631.831L134.584 626.058H136.221L137.383 630.18H137.442L138.615 626.058H140.263L138.081 632.277C137.976 632.579 137.834 632.842 137.654 633.066C137.476 633.293 137.25 633.467 136.978 633.589C136.705 633.713 136.376 633.775 135.991 633.775Z" fill="#06DF73"/>
<path d="M130.427 629.617L132.448 626.058H133.983V631.671H132.499V628.1L130.486 631.671H128.94V626.058H130.427V629.617Z" fill="#06DF73"/>
<path d="M122.428 633.775V626.057H123.963V627H124.032C124.101 626.849 124.199 626.696 124.328 626.54C124.46 626.381 124.63 626.25 124.84 626.145C125.052 626.038 125.315 625.984 125.629 625.984C126.039 625.984 126.416 626.092 126.762 626.306C127.108 626.518 127.385 626.838 127.592 627.267C127.799 627.693 127.902 628.228 127.902 628.871C127.902 629.497 127.801 630.026 127.599 630.457C127.399 630.886 127.126 631.211 126.78 631.433C126.437 631.652 126.052 631.762 125.626 631.762C125.324 631.762 125.067 631.712 124.855 631.612C124.645 631.512 124.473 631.387 124.339 631.236C124.205 631.082 124.103 630.927 124.032 630.771H123.985V633.775H122.428ZM123.952 628.864C123.952 629.198 123.998 629.489 124.091 629.737C124.183 629.986 124.317 630.179 124.493 630.318C124.668 630.455 124.881 630.523 125.132 630.523C125.386 630.523 125.6 630.454 125.775 630.315C125.951 630.173 126.084 629.978 126.174 629.73C126.266 629.479 126.313 629.19 126.313 628.864C126.313 628.54 126.268 628.255 126.177 628.009C126.087 627.763 125.955 627.57 125.779 627.431C125.604 627.293 125.388 627.223 125.132 627.223C124.879 627.223 124.665 627.29 124.489 627.424C124.316 627.558 124.183 627.748 124.091 627.994C123.998 628.24 123.952 628.53 123.952 628.864Z" fill="#06DF73"/>
<path d="M116.398 627.282V626.058H121.484V627.282H119.676V631.671H118.192V627.282H116.398Z" fill="#06DF73"/>
<path d="M110.312 631.67H108.616L111.2 624.187H113.239L115.819 631.67H114.123L112.248 625.897H112.19L110.312 631.67ZM110.206 628.729H114.211V629.964H110.206V628.729Z" fill="#06DF73"/>
<path d="M133.486 729.429V723.816H135.879C136.571 723.816 137.118 723.948 137.52 724.211C137.922 724.474 138.123 724.848 138.123 725.333C138.123 725.637 138.01 725.891 137.783 726.093C137.556 726.295 137.242 726.432 136.84 726.502C137.176 726.527 137.463 726.603 137.699 726.733C137.938 726.859 138.119 727.024 138.243 727.226C138.37 727.428 138.433 727.652 138.433 727.898C138.433 728.217 138.348 728.491 138.178 728.72C138.01 728.949 137.762 729.125 137.436 729.247C137.112 729.368 136.716 729.429 136.248 729.429H133.486ZM134.936 728.264H136.248C136.465 728.264 136.634 728.212 136.756 728.11C136.88 728.005 136.943 727.863 136.943 727.683C136.943 727.483 136.88 727.326 136.756 727.211C136.634 727.097 136.465 727.039 136.248 727.039H134.936V728.264ZM134.936 726.126H135.912C136.068 726.126 136.201 726.104 136.31 726.06C136.422 726.014 136.508 725.948 136.566 725.863C136.627 725.778 136.657 725.676 136.657 725.559C136.657 725.387 136.588 725.251 136.449 725.154C136.31 725.056 136.12 725.008 135.879 725.008H134.936V726.126Z" fill="#06DF73"/>
<path d="M128.682 727.376L130.703 723.816H132.238V729.429H130.754V725.859L128.741 729.429H127.195V723.816H128.682V727.376Z" fill="#06DF73"/>
<path d="M122.587 723.816L123.617 725.779L124.673 723.816H126.27L124.644 726.623L126.314 729.429H124.725L123.617 727.489L122.528 729.429H120.92L122.587 726.623L120.979 723.816H122.587Z" fill="#06DF73"/>
<path d="M114.975 731.534V723.816H116.51V724.759H116.579C116.647 724.608 116.746 724.455 116.875 724.299C117.007 724.14 117.177 724.009 117.387 723.904C117.599 723.797 117.862 723.743 118.176 723.743C118.585 723.743 118.963 723.85 119.309 724.065C119.655 724.277 119.931 724.597 120.138 725.026C120.346 725.452 120.449 725.987 120.449 726.63C120.449 727.256 120.348 727.785 120.146 728.216C119.946 728.645 119.673 728.97 119.327 729.192C118.984 729.411 118.599 729.521 118.173 729.521C117.87 729.521 117.613 729.471 117.401 729.371C117.192 729.271 117.02 729.145 116.886 728.994C116.752 728.841 116.65 728.686 116.579 728.53H116.532V731.534H114.975ZM116.499 726.623C116.499 726.956 116.545 727.248 116.638 727.496C116.73 727.745 116.864 727.938 117.04 728.077C117.215 728.214 117.428 728.282 117.679 728.282C117.933 728.282 118.147 728.212 118.322 728.073C118.498 727.932 118.631 727.737 118.721 727.489C118.813 727.238 118.86 726.949 118.86 726.623C118.86 726.299 118.814 726.014 118.724 725.768C118.634 725.522 118.501 725.329 118.326 725.19C118.151 725.051 117.935 724.982 117.679 724.982C117.426 724.982 117.211 725.049 117.036 725.183C116.863 725.317 116.73 725.507 116.638 725.753C116.545 725.999 116.499 726.289 116.499 726.623Z" fill="#06DF73"/>
<path d="M108.597 729.429H106.901L109.485 721.945H111.524L114.104 729.429H112.408L110.533 723.656H110.475L108.597 729.429ZM108.491 726.488H112.496V727.723H108.491V726.488Z" fill="#06DF73"/>
<path d="M121.332 810.015V809.878C121.335 809.411 121.375 809.039 121.453 808.761C121.534 808.483 121.651 808.259 121.805 808.088C121.959 807.917 122.143 807.762 122.36 807.624C122.521 807.517 122.666 807.406 122.793 807.291C122.921 807.176 123.022 807.049 123.098 806.911C123.173 806.769 123.211 806.612 123.211 806.438C123.211 806.254 123.168 806.092 123.082 805.953C122.996 805.815 122.88 805.708 122.735 805.633C122.591 805.558 122.432 805.521 122.258 805.521C122.089 805.521 121.929 805.56 121.778 805.637C121.627 805.712 121.503 805.824 121.406 805.973C121.31 806.12 121.258 806.303 121.25 806.522H119.656C119.67 805.988 119.795 805.548 120.031 805.2C120.268 804.851 120.582 804.59 120.973 804.42C121.363 804.246 121.794 804.159 122.266 804.159C122.784 804.159 123.242 804.247 123.641 804.424C124.039 804.597 124.352 804.849 124.578 805.18C124.805 805.512 124.918 805.911 124.918 806.378C124.918 806.69 124.867 806.968 124.766 807.211C124.667 807.451 124.527 807.665 124.348 807.852C124.168 808.036 123.956 808.203 123.711 808.352C123.505 808.478 123.336 808.609 123.203 808.745C123.073 808.881 122.975 809.039 122.91 809.218C122.848 809.396 122.815 809.617 122.813 809.878V810.015H121.332ZM122.106 812.578C121.845 812.578 121.623 812.484 121.438 812.297C121.255 812.108 121.166 811.881 121.168 811.617C121.166 811.355 121.255 811.131 121.438 810.944C121.623 810.757 121.845 810.663 122.106 810.663C122.353 810.663 122.57 810.757 122.758 810.944C122.945 811.131 123.041 811.355 123.043 811.617C123.041 811.793 122.995 811.954 122.906 812.101C122.82 812.245 122.707 812.361 122.567 812.45C122.426 812.535 122.272 812.578 122.106 812.578Z" fill="#06DF73"/>
<path d="M96.0766 885.782V885.646C96.0792 885.179 96.1195 884.806 96.1977 884.529C96.2784 884.251 96.3956 884.027 96.5492 883.856C96.7029 883.685 96.8877 883.53 97.1039 883.391C97.2653 883.284 97.4099 883.173 97.5375 883.059C97.6651 882.944 97.7666 882.817 97.8421 882.678C97.9177 882.537 97.9554 882.379 97.9554 882.206C97.9554 882.021 97.9125 881.86 97.8265 881.721C97.7406 881.582 97.6247 881.475 97.4789 881.401C97.3356 881.326 97.1768 881.288 97.0023 881.288C96.8331 881.288 96.6729 881.327 96.5219 881.405C96.3708 881.479 96.2471 881.592 96.1508 881.741C96.0544 881.888 96.0023 882.071 95.9945 882.29H94.4008C94.4138 881.756 94.5388 881.315 94.7758 880.968C95.0128 880.618 95.3266 880.358 95.7172 880.187C96.1078 880.014 96.5388 879.927 97.0101 879.927C97.5284 879.927 97.9867 880.015 98.3851 880.191C98.7835 880.365 99.096 880.617 99.3226 880.948C99.5491 881.279 99.6624 881.678 99.6624 882.146C99.6624 882.458 99.6116 882.736 99.5101 882.979C99.4111 883.219 99.2718 883.432 99.0921 883.619C98.9124 883.804 98.7002 883.97 98.4554 884.12C98.2497 884.246 98.0804 884.376 97.9476 884.513C97.8174 884.649 97.7198 884.806 97.6547 884.985C97.5922 885.164 97.5596 885.384 97.557 885.646V885.782H96.0766ZM96.85 888.345C96.5896 888.345 96.3669 888.252 96.182 888.065C95.9997 887.875 95.9099 887.648 95.9125 887.384C95.9099 887.122 95.9997 886.898 96.182 886.711C96.3669 886.524 96.5896 886.431 96.85 886.431C97.0974 886.431 97.3148 886.524 97.5023 886.711C97.6898 886.898 97.7849 887.122 97.7875 887.384C97.7849 887.56 97.7393 887.722 97.6507 887.869C97.5648 888.013 97.4515 888.129 97.3109 888.217C97.1703 888.303 97.0166 888.345 96.85 888.345Z" fill="#06DF73"/>
<path d="M296.017 885.782V885.646C296.02 885.179 296.06 884.806 296.139 884.529C296.219 884.251 296.336 884.027 296.49 883.856C296.644 883.685 296.829 883.53 297.045 883.391C297.206 883.284 297.351 883.173 297.478 883.059C297.606 882.944 297.707 882.817 297.783 882.678C297.859 882.537 297.896 882.379 297.896 882.206C297.896 882.021 297.853 881.86 297.767 881.721C297.681 881.582 297.566 881.475 297.42 881.401C297.277 881.326 297.118 881.288 296.943 881.288C296.774 881.288 296.614 881.327 296.463 881.405C296.312 881.479 296.188 881.592 296.092 881.741C295.995 881.888 295.943 882.071 295.935 882.29H294.342C294.355 881.756 294.48 881.315 294.717 880.968C294.954 880.618 295.267 880.358 295.658 880.187C296.049 880.014 296.48 879.927 296.951 879.927C297.469 879.927 297.928 880.015 298.326 880.191C298.724 880.365 299.037 880.617 299.263 880.948C299.49 881.279 299.603 881.678 299.603 882.146C299.603 882.458 299.552 882.736 299.451 882.979C299.352 883.219 299.213 883.432 299.033 883.619C298.853 883.804 298.641 883.97 298.396 884.12C298.191 884.246 298.021 884.376 297.888 884.513C297.758 884.649 297.661 884.806 297.596 884.985C297.533 885.164 297.5 885.384 297.498 885.646V885.782H296.017ZM296.791 888.345C296.53 888.345 296.308 888.252 296.123 888.065C295.941 887.875 295.851 887.648 295.853 887.384C295.851 887.122 295.941 886.898 296.123 886.711C296.308 886.524 296.53 886.431 296.791 886.431C297.038 886.431 297.256 886.524 297.443 886.711C297.631 886.898 297.726 887.122 297.728 887.384C297.726 887.56 297.68 887.722 297.592 887.869C297.506 888.013 297.392 888.129 297.252 888.217C297.111 888.303 296.958 888.345 296.791 888.345Z" fill="#06DF73"/>
<path d="M296.017 810.015V809.878C296.02 809.411 296.06 809.039 296.139 808.761C296.219 808.483 296.336 808.259 296.49 808.088C296.644 807.917 296.829 807.762 297.045 807.624C297.206 807.517 297.351 807.406 297.478 807.291C297.606 807.176 297.707 807.049 297.783 806.911C297.859 806.769 297.896 806.612 297.896 806.438C297.896 806.254 297.853 806.092 297.767 805.953C297.681 805.815 297.566 805.708 297.42 805.633C297.277 805.558 297.118 805.521 296.943 805.521C296.774 805.521 296.614 805.56 296.463 805.637C296.312 805.712 296.188 805.824 296.092 805.973C295.995 806.12 295.943 806.303 295.935 806.522H294.342C294.355 805.988 294.48 805.548 294.717 805.2C294.954 804.851 295.267 804.59 295.658 804.42C296.049 804.246 296.48 804.159 296.951 804.159C297.469 804.159 297.928 804.247 298.326 804.424C298.724 804.597 299.037 804.849 299.263 805.18C299.49 805.512 299.603 805.911 299.603 806.378C299.603 806.69 299.552 806.968 299.451 807.211C299.352 807.451 299.213 807.665 299.033 807.852C298.853 808.036 298.641 808.203 298.396 808.352C298.191 808.478 298.021 808.609 297.888 808.745C297.758 808.881 297.661 809.039 297.596 809.218C297.533 809.396 297.5 809.617 297.498 809.878V810.015H296.017ZM296.791 812.578C296.53 812.578 296.308 812.484 296.123 812.297C295.941 812.108 295.851 811.881 295.853 811.617C295.851 811.355 295.941 811.131 296.123 810.944C296.308 810.757 296.53 810.663 296.791 810.663C297.038 810.663 297.256 810.757 297.443 810.944C297.631 811.131 297.726 811.355 297.728 811.617C297.726 811.793 297.68 811.954 297.592 812.101C297.506 812.245 297.392 812.361 297.252 812.45C297.111 812.535 296.958 812.578 296.791 812.578Z" fill="#06DF73"/>
<path d="M296.017 727.202V727.082C296.02 726.674 296.06 726.348 296.139 726.105C296.219 725.862 296.336 725.665 296.49 725.516C296.644 725.366 296.829 725.231 297.045 725.109C297.206 725.016 297.351 724.919 297.478 724.819C297.606 724.718 297.707 724.607 297.783 724.486C297.859 724.362 297.896 724.224 297.896 724.072C297.896 723.911 297.853 723.77 297.767 723.648C297.681 723.527 297.566 723.433 297.42 723.368C297.277 723.302 297.118 723.27 296.943 723.27C296.774 723.27 296.614 723.303 296.463 723.371C296.312 723.437 296.188 723.535 296.092 723.666C295.995 723.794 295.943 723.954 295.935 724.146H294.342C294.355 723.678 294.48 723.293 294.717 722.989C294.954 722.683 295.267 722.455 295.658 722.306C296.049 722.154 296.48 722.078 296.951 722.078C297.469 722.078 297.928 722.155 298.326 722.309C298.724 722.461 299.037 722.682 299.263 722.972C299.49 723.261 299.603 723.611 299.603 724.02C299.603 724.293 299.552 724.536 299.451 724.748C299.352 724.959 299.213 725.146 299.033 725.309C298.853 725.47 298.641 725.616 298.396 725.747C298.191 725.857 298.021 725.972 297.888 726.091C297.758 726.21 297.661 726.348 297.596 726.504C297.533 726.661 297.5 726.853 297.498 727.082V727.202H296.017ZM296.791 729.444C296.53 729.444 296.308 729.363 296.123 729.199C295.941 729.033 295.851 728.835 295.853 728.603C295.851 728.374 295.941 728.178 296.123 728.015C296.308 727.851 296.53 727.769 296.791 727.769C297.038 727.769 297.256 727.851 297.443 728.015C297.631 728.178 297.726 728.374 297.728 728.603C297.726 728.758 297.68 728.899 297.592 729.027C297.506 729.154 297.392 729.255 297.252 729.332C297.111 729.407 296.958 729.444 296.791 729.444Z" fill="#06DF73"/>
<path d="M296.017 629.016V628.879C296.02 628.412 296.06 628.04 296.139 627.762C296.219 627.484 296.336 627.26 296.49 627.089C296.644 626.918 296.829 626.763 297.045 626.625C297.206 626.518 297.351 626.407 297.478 626.292C297.606 626.177 297.707 626.05 297.783 625.912C297.859 625.77 297.896 625.613 297.896 625.439C297.896 625.255 297.853 625.093 297.767 624.954C297.681 624.816 297.566 624.709 297.42 624.634C297.277 624.559 297.118 624.522 296.943 624.522C296.774 624.522 296.614 624.561 296.463 624.638C296.312 624.713 296.188 624.825 296.092 624.974C295.995 625.121 295.943 625.304 295.935 625.523H294.342C294.355 624.989 294.48 624.549 294.717 624.201C294.954 623.852 295.267 623.591 295.658 623.42C296.049 623.247 296.48 623.16 296.951 623.16C297.469 623.16 297.928 623.248 298.326 623.424C298.724 623.598 299.037 623.85 299.263 624.181C299.49 624.513 299.603 624.912 299.603 625.379C299.603 625.691 299.552 625.969 299.451 626.212C299.352 626.452 299.213 626.666 299.033 626.853C298.853 627.037 298.641 627.204 298.396 627.353C298.191 627.479 298.021 627.61 297.888 627.746C297.758 627.882 297.661 628.04 297.596 628.219C297.533 628.397 297.5 628.618 297.498 628.879V629.016H296.017ZM296.791 631.579C296.53 631.579 296.308 631.485 296.123 631.298C295.941 631.109 295.851 630.882 295.853 630.618C295.851 630.356 295.941 630.132 296.123 629.945C296.308 629.758 296.53 629.664 296.791 629.664C297.038 629.664 297.256 629.758 297.443 629.945C297.631 630.132 297.726 630.356 297.728 630.618C297.726 630.794 297.68 630.955 297.592 631.102C297.506 631.246 297.392 631.362 297.252 631.451C297.111 631.536 296.958 631.579 296.791 631.579Z" fill="#06DF73"/>
<path d="M296.017 546.523V546.421C296.02 546.071 296.06 545.791 296.139 545.583C296.219 545.375 296.336 545.207 296.49 545.079C296.644 544.95 296.829 544.834 297.045 544.73C297.206 544.65 297.351 544.567 297.478 544.481C297.606 544.395 297.707 544.3 297.783 544.195C297.859 544.089 297.896 543.971 297.896 543.841C297.896 543.703 297.853 543.582 297.767 543.478C297.681 543.373 297.566 543.293 297.42 543.237C297.277 543.181 297.118 543.153 296.943 543.153C296.774 543.153 296.614 543.182 296.463 543.24C296.312 543.296 296.188 543.38 296.092 543.493C295.995 543.603 295.943 543.74 295.935 543.904H294.342C294.355 543.504 294.48 543.173 294.717 542.913C294.954 542.65 295.267 542.455 295.658 542.327C296.049 542.197 296.48 542.132 296.951 542.132C297.469 542.132 297.928 542.198 298.326 542.33C298.724 542.46 299.037 542.649 299.263 542.898C299.49 543.146 299.603 543.445 299.603 543.796C299.603 544.03 299.552 544.238 299.451 544.421C299.352 544.601 299.213 544.761 299.033 544.901C298.853 545.039 298.641 545.165 298.396 545.277C298.191 545.371 298.021 545.469 297.888 545.571C297.758 545.673 297.661 545.791 297.596 545.926C297.533 546.06 297.5 546.225 297.498 546.421V546.523H296.017ZM296.791 548.446C296.53 548.446 296.308 548.376 296.123 548.235C295.941 548.093 295.851 547.923 295.853 547.725C295.851 547.529 295.941 547.36 296.123 547.22C296.308 547.08 296.53 547.01 296.791 547.01C297.038 547.01 297.256 547.08 297.443 547.22C297.631 547.36 297.726 547.529 297.728 547.725C297.726 547.857 297.68 547.978 297.592 548.088C297.506 548.196 297.392 548.284 297.252 548.35C297.111 548.414 296.958 548.446 296.791 548.446Z" fill="#06DF73"/>
<path d="M124.489 546.523V546.421C124.492 546.071 124.532 545.791 124.61 545.583C124.691 545.375 124.808 545.207 124.962 545.079C125.116 544.95 125.3 544.834 125.517 544.73C125.678 544.65 125.823 544.567 125.95 544.481C126.078 544.395 126.179 544.3 126.255 544.195C126.33 544.089 126.368 543.971 126.368 543.841C126.368 543.703 126.325 543.582 126.239 543.478C126.153 543.373 126.037 543.293 125.892 543.237C125.748 543.181 125.589 543.153 125.415 543.153C125.246 543.153 125.086 543.182 124.935 543.24C124.783 543.296 124.66 543.38 124.563 543.493C124.467 543.603 124.415 543.74 124.407 543.904H122.813C122.826 543.504 122.951 543.173 123.188 542.913C123.425 542.65 123.739 542.455 124.13 542.327C124.52 542.197 124.951 542.132 125.423 542.132C125.941 542.132 126.399 542.198 126.798 542.33C127.196 542.46 127.509 542.649 127.735 542.898C127.962 543.146 128.075 543.445 128.075 543.796C128.075 544.03 128.024 544.238 127.923 544.421C127.824 544.601 127.684 544.761 127.505 544.901C127.325 545.039 127.113 545.165 126.868 545.277C126.662 545.371 126.493 545.469 126.36 545.571C126.23 545.673 126.132 545.791 126.067 545.926C126.005 546.06 125.972 546.225 125.97 546.421V546.523H124.489ZM125.263 548.446C125.002 548.446 124.78 548.376 124.595 548.235C124.412 548.093 124.323 547.923 124.325 547.725C124.323 547.529 124.412 547.36 124.595 547.22C124.78 547.08 125.002 547.01 125.263 547.01C125.51 547.01 125.727 547.08 125.915 547.22C126.102 547.36 126.198 547.529 126.2 547.725C126.198 547.857 126.152 547.978 126.063 548.088C125.977 548.196 125.864 548.284 125.724 548.35C125.583 548.414 125.429 548.446 125.263 548.446Z" fill="#06DF73"/>
<path d="M124.489 472.22V472.083C124.492 471.616 124.532 471.244 124.61 470.966C124.691 470.688 124.808 470.464 124.962 470.293C125.116 470.122 125.3 469.967 125.517 469.829C125.678 469.722 125.823 469.611 125.95 469.496C126.078 469.381 126.179 469.255 126.255 469.116C126.33 468.974 126.368 468.817 126.368 468.643C126.368 468.459 126.325 468.297 126.239 468.159C126.153 468.02 126.037 467.913 125.892 467.838C125.748 467.763 125.589 467.726 125.415 467.726C125.246 467.726 125.086 467.765 124.935 467.842C124.783 467.917 124.66 468.029 124.563 468.179C124.467 468.325 124.415 468.508 124.407 468.727H122.813C122.826 468.193 122.951 467.753 123.188 467.406C123.425 467.056 123.739 466.795 124.13 466.625C124.52 466.451 124.951 466.364 125.423 466.364C125.941 466.364 126.399 466.452 126.798 466.629C127.196 466.802 127.509 467.054 127.735 467.386C127.962 467.717 128.075 468.116 128.075 468.583C128.075 468.895 128.024 469.173 127.923 469.416C127.824 469.656 127.684 469.87 127.505 470.057C127.325 470.241 127.113 470.408 126.868 470.558C126.662 470.683 126.493 470.814 126.36 470.95C126.23 471.086 126.132 471.244 126.067 471.423C126.005 471.601 125.972 471.822 125.97 472.083V472.22H124.489ZM125.263 474.783C125.002 474.783 124.78 474.689 124.595 474.502C124.412 474.313 124.323 474.086 124.325 473.822C124.323 473.56 124.412 473.336 124.595 473.149C124.78 472.962 125.002 472.868 125.263 472.868C125.51 472.868 125.727 472.962 125.915 473.149C126.102 473.336 126.198 473.56 126.2 473.822C126.198 473.998 126.152 474.159 126.063 474.306C125.977 474.45 125.864 474.567 125.724 474.655C125.583 474.74 125.429 474.783 125.263 474.783Z" fill="#06DF73"/>
<path d="M124.489 220.716V220.58C124.492 220.112 124.532 219.74 124.61 219.462C124.691 219.184 124.808 218.96 124.962 218.789C125.116 218.618 125.3 218.464 125.517 218.325C125.678 218.218 125.823 218.107 125.95 217.992C126.078 217.877 126.179 217.751 126.255 217.612C126.33 217.47 126.368 217.313 126.368 217.139C126.368 216.955 126.325 216.793 126.239 216.655C126.153 216.516 126.037 216.409 125.892 216.334C125.748 216.259 125.589 216.222 125.415 216.222C125.246 216.222 125.086 216.261 124.935 216.338C124.783 216.413 124.66 216.525 124.563 216.675C124.467 216.821 124.415 217.004 124.407 217.223H122.813C122.826 216.689 122.951 216.249 123.188 215.902C123.425 215.552 123.739 215.292 124.13 215.121C124.52 214.947 124.951 214.86 125.423 214.86C125.941 214.86 126.399 214.948 126.798 215.125C127.196 215.298 127.509 215.551 127.735 215.882C127.962 216.213 128.075 216.612 128.075 217.079C128.075 217.392 128.024 217.669 127.923 217.912C127.824 218.152 127.684 218.366 127.505 218.553C127.325 218.737 127.113 218.904 126.868 219.054C126.662 219.179 126.493 219.31 126.36 219.446C126.23 219.582 126.132 219.74 126.067 219.919C126.005 220.098 125.972 220.318 125.97 220.58V220.716H124.489ZM125.263 223.279C125.002 223.279 124.78 223.185 124.595 222.999C124.412 222.809 124.323 222.582 124.325 222.318C124.323 222.056 124.412 221.832 124.595 221.645C124.78 221.458 125.002 221.365 125.263 221.365C125.51 221.365 125.727 221.458 125.915 221.645C126.102 221.832 126.198 222.056 126.2 222.318C126.198 222.494 126.152 222.655 126.063 222.802C125.977 222.946 125.864 223.063 125.724 223.151C125.583 223.236 125.429 223.279 125.263 223.279Z" fill="#06DF73"/>
<path d="M466.158 203.146V203.027C466.16 202.618 466.193 202.292 466.255 202.049C466.32 201.806 466.413 201.61 466.536 201.46C466.659 201.311 466.807 201.175 466.98 201.054C467.109 200.96 467.225 200.863 467.327 200.763C467.429 200.662 467.51 200.551 467.571 200.43C467.631 200.306 467.661 200.168 467.661 200.016C467.661 199.855 467.627 199.714 467.558 199.592C467.489 199.471 467.397 199.377 467.28 199.312C467.165 199.247 467.038 199.214 466.899 199.214C466.763 199.214 466.635 199.248 466.514 199.316C466.394 199.381 466.295 199.479 466.218 199.61C466.141 199.738 466.099 199.898 466.093 200.09H464.818C464.828 199.623 464.928 199.237 465.118 198.934C465.307 198.628 465.558 198.4 465.871 198.25C466.183 198.098 466.528 198.022 466.905 198.022C467.32 198.022 467.686 198.1 468.005 198.254C468.324 198.406 468.574 198.626 468.755 198.916C468.936 199.206 469.027 199.555 469.027 199.964C469.027 200.237 468.986 200.48 468.905 200.693C468.826 200.903 468.714 201.09 468.571 201.254C468.427 201.415 468.257 201.561 468.061 201.692C467.897 201.801 467.761 201.916 467.655 202.035C467.551 202.154 467.473 202.292 467.421 202.449C467.371 202.605 467.345 202.798 467.343 203.027V203.146H466.158ZM466.777 205.389C466.569 205.389 466.391 205.307 466.243 205.143C466.097 204.978 466.025 204.779 466.027 204.548C466.025 204.319 466.097 204.122 466.243 203.959C466.391 203.795 466.569 203.714 466.777 203.714C466.975 203.714 467.149 203.795 467.299 203.959C467.449 204.122 467.525 204.319 467.527 204.548C467.525 204.702 467.488 204.843 467.418 204.972C467.349 205.098 467.258 205.199 467.146 205.277C467.033 205.351 466.91 205.389 466.777 205.389Z" fill="#06DF73"/>
<path d="M660.502 203.146V203.027C660.504 202.618 660.528 202.292 660.575 202.049C660.623 201.806 660.694 201.61 660.786 201.46C660.878 201.311 660.989 201.175 661.119 201.054C661.216 200.96 661.302 200.863 661.379 200.763C661.455 200.662 661.516 200.551 661.562 200.43C661.607 200.306 661.63 200.168 661.63 200.016C661.63 199.855 661.604 199.714 661.552 199.592C661.501 199.471 661.431 199.377 661.344 199.312C661.258 199.247 661.162 199.214 661.058 199.214C660.956 199.214 660.86 199.248 660.769 199.316C660.679 199.381 660.605 199.479 660.547 199.61C660.489 199.738 660.458 199.898 660.453 200.09H659.497C659.505 199.623 659.58 199.237 659.722 198.934C659.864 198.628 660.052 198.4 660.287 198.25C660.521 198.098 660.78 198.022 661.062 198.022C661.373 198.022 661.648 198.1 661.887 198.254C662.126 198.406 662.314 198.626 662.45 198.916C662.586 199.206 662.654 199.555 662.654 199.964C662.654 200.237 662.623 200.48 662.562 200.693C662.503 200.903 662.419 201.09 662.312 201.254C662.204 201.415 662.076 201.561 661.93 201.692C661.806 201.801 661.705 201.916 661.625 202.035C661.547 202.154 661.488 202.292 661.449 202.449C661.412 202.605 661.392 202.798 661.391 203.027V203.146H660.502ZM660.966 205.389C660.81 205.389 660.676 205.307 660.566 205.143C660.456 204.978 660.402 204.779 660.404 204.548C660.402 204.319 660.456 204.122 660.566 203.959C660.676 203.795 660.81 203.714 660.966 203.714C661.115 203.714 661.245 203.795 661.358 203.959C661.47 204.122 661.527 204.319 661.529 204.548C661.527 204.702 661.5 204.843 661.447 204.972C661.395 205.098 661.327 205.199 661.243 205.277C661.159 205.351 661.066 205.389 660.966 205.389Z" fill="#06DF73"/>
<path d="M556.993 406.245V406.125C556.995 405.717 557.036 405.391 557.114 405.148C557.195 404.905 557.312 404.708 557.466 404.559C557.619 404.409 557.804 404.274 558.02 404.152C558.182 404.059 558.326 403.962 558.454 403.862C558.581 403.761 558.683 403.65 558.758 403.529C558.834 403.405 558.872 403.267 558.872 403.115C558.872 402.954 558.829 402.813 558.743 402.691C558.657 402.57 558.541 402.476 558.395 402.411C558.252 402.345 558.093 402.313 557.919 402.313C557.749 402.313 557.589 402.346 557.438 402.414C557.287 402.48 557.163 402.578 557.067 402.709C556.971 402.837 556.919 402.997 556.911 403.189H555.317C555.33 402.721 555.455 402.336 555.692 402.032C555.929 401.726 556.243 401.498 556.634 401.349C557.024 401.197 557.455 401.121 557.926 401.121C558.445 401.121 558.903 401.198 559.301 401.352C559.7 401.504 560.012 401.725 560.239 402.015C560.465 402.304 560.579 402.654 560.579 403.063C560.579 403.336 560.528 403.579 560.426 403.791C560.327 404.002 560.188 404.189 560.008 404.352C559.829 404.513 559.617 404.659 559.372 404.79C559.166 404.9 558.997 405.014 558.864 405.134C558.734 405.253 558.636 405.391 558.571 405.547C558.508 405.704 558.476 405.896 558.473 406.125V406.245H556.993ZM557.766 408.487C557.506 408.487 557.283 408.406 557.098 408.242C556.916 408.076 556.826 407.878 556.829 407.646C556.826 407.417 556.916 407.221 557.098 407.058C557.283 406.894 557.506 406.812 557.766 406.812C558.014 406.812 558.231 406.894 558.419 407.058C558.606 407.221 558.701 407.417 558.704 407.646C558.701 407.8 558.656 407.942 558.567 408.07C558.481 408.196 558.368 408.298 558.227 408.375C558.087 408.45 557.933 408.487 557.766 408.487Z" fill="#06DF73"/>
<path d="M744.306 406.245V406.125C744.308 405.717 744.349 405.391 744.427 405.148C744.508 404.905 744.625 404.708 744.779 404.559C744.932 404.409 745.117 404.274 745.333 404.152C745.495 404.059 745.639 403.962 745.767 403.862C745.894 403.761 745.996 403.65 746.071 403.529C746.147 403.405 746.185 403.267 746.185 403.115C746.185 402.954 746.142 402.813 746.056 402.691C745.97 402.57 745.854 402.476 745.708 402.411C745.565 402.345 745.406 402.313 745.232 402.313C745.062 402.313 744.902 402.346 744.751 402.414C744.6 402.48 744.476 402.578 744.38 402.709C744.284 402.837 744.232 402.997 744.224 403.189H742.63C742.643 402.721 742.768 402.336 743.005 402.032C743.242 401.726 743.556 401.498 743.947 401.349C744.337 401.197 744.768 401.121 745.239 401.121C745.758 401.121 746.216 401.198 746.614 401.352C747.013 401.504 747.325 401.725 747.552 402.015C747.778 402.304 747.892 402.654 747.892 403.063C747.892 403.336 747.841 403.579 747.739 403.791C747.64 404.002 747.501 404.189 747.321 404.352C747.142 404.513 746.93 404.659 746.685 404.79C746.479 404.9 746.31 405.014 746.177 405.134C746.047 405.253 745.949 405.391 745.884 405.547C745.821 405.704 745.789 405.896 745.786 406.125V406.245H744.306ZM745.079 408.487C744.819 408.487 744.596 408.406 744.411 408.242C744.229 408.076 744.139 407.878 744.142 407.646C744.139 407.417 744.229 407.221 744.411 407.058C744.596 406.894 744.819 406.812 745.079 406.812C745.327 406.812 745.544 406.894 745.732 407.058C745.919 407.221 746.014 407.417 746.017 407.646C746.014 407.8 745.969 407.942 745.88 408.07C745.794 408.196 745.681 408.298 745.54 408.375C745.4 408.45 745.246 408.487 745.079 408.487Z" fill="#06DF73"/>
<path d="M846.046 406.245V406.125C846.048 405.717 846.08 405.391 846.143 405.148C846.207 404.905 846.301 404.708 846.424 404.559C846.547 404.409 846.695 404.274 846.868 404.152C846.997 404.059 847.113 403.962 847.215 403.862C847.317 403.761 847.398 403.65 847.458 403.529C847.519 403.405 847.549 403.267 847.549 403.115C847.549 402.954 847.515 402.813 847.446 402.691C847.377 402.57 847.284 402.476 847.168 402.411C847.053 402.345 846.926 402.313 846.787 402.313C846.651 402.313 846.523 402.346 846.402 402.414C846.281 402.48 846.182 402.578 846.105 402.709C846.028 402.837 845.987 402.997 845.98 403.189H844.705C844.716 402.721 844.816 402.336 845.005 402.032C845.195 401.726 845.446 401.498 845.758 401.349C846.071 401.197 846.416 401.121 846.793 401.121C847.207 401.121 847.574 401.198 847.893 401.352C848.211 401.504 848.461 401.725 848.643 402.015C848.824 402.304 848.915 402.654 848.915 403.063C848.915 403.336 848.874 403.579 848.793 403.791C848.714 404.002 848.602 404.189 848.458 404.352C848.315 404.513 848.145 404.659 847.949 404.79C847.784 404.9 847.649 405.014 847.543 405.134C847.439 405.253 847.36 405.391 847.308 405.547C847.258 405.704 847.232 405.896 847.23 406.125V406.245H846.046ZM846.665 408.487C846.456 408.487 846.278 408.406 846.13 408.242C845.984 408.076 845.913 407.878 845.915 407.646C845.913 407.417 845.984 407.221 846.13 407.058C846.278 406.894 846.456 406.812 846.665 406.812C846.863 406.812 847.037 406.894 847.187 407.058C847.337 407.221 847.413 407.417 847.415 407.646C847.413 407.8 847.376 407.942 847.305 408.07C847.237 408.196 847.146 408.298 847.033 408.375C846.921 408.45 846.798 408.487 846.665 408.487Z" fill="#06DF73"/>
<path d="M936.881 406.245V406.125C936.883 405.717 936.924 405.391 937.002 405.148C937.082 404.905 937.2 404.708 937.353 404.559C937.507 404.409 937.692 404.274 937.908 404.152C938.069 404.059 938.214 403.962 938.341 403.862C938.469 403.761 938.571 403.65 938.646 403.529C938.722 403.405 938.759 403.267 938.759 403.115C938.759 402.954 938.716 402.813 938.631 402.691C938.545 402.57 938.429 402.476 938.283 402.411C938.14 402.345 937.981 402.313 937.806 402.313C937.637 402.313 937.477 402.346 937.326 402.414C937.175 402.48 937.051 402.578 936.955 402.709C936.858 402.837 936.806 402.997 936.799 403.189H935.205C935.218 402.721 935.343 402.336 935.58 402.032C935.817 401.726 936.131 401.498 936.521 401.349C936.912 401.197 937.343 401.121 937.814 401.121C938.332 401.121 938.791 401.198 939.189 401.352C939.588 401.504 939.9 401.725 940.127 402.015C940.353 402.304 940.466 402.654 940.466 403.063C940.466 403.336 940.416 403.579 940.314 403.791C940.215 404.002 940.076 404.189 939.896 404.352C939.716 404.513 939.504 404.659 939.259 404.79C939.054 404.9 938.884 405.014 938.752 405.134C938.621 405.253 938.524 405.391 938.459 405.547C938.396 405.704 938.364 405.896 938.361 406.125V406.245H936.881ZM937.654 408.487C937.394 408.487 937.171 408.406 936.986 408.242C936.804 408.076 936.714 407.878 936.717 407.646C936.714 407.417 936.804 407.221 936.986 407.058C937.171 406.894 937.394 406.812 937.654 406.812C937.901 406.812 938.119 406.894 938.306 407.058C938.494 407.221 938.589 407.417 938.591 407.646C938.589 407.8 938.543 407.942 938.455 408.07C938.369 408.196 938.256 408.298 938.115 408.375C937.974 408.45 937.821 408.487 937.654 408.487Z" fill="#06DF73"/>
<path d="M846.046 203.146V203.027C846.048 202.618 846.08 202.292 846.143 202.049C846.207 201.806 846.301 201.61 846.424 201.46C846.547 201.311 846.695 201.175 846.868 201.054C846.997 200.96 847.113 200.863 847.215 200.763C847.317 200.662 847.398 200.551 847.458 200.43C847.519 200.306 847.549 200.168 847.549 200.016C847.549 199.855 847.515 199.714 847.446 199.592C847.377 199.471 847.284 199.377 847.168 199.312C847.053 199.247 846.926 199.214 846.787 199.214C846.651 199.214 846.523 199.248 846.402 199.316C846.281 199.381 846.182 199.479 846.105 199.61C846.028 199.738 845.987 199.898 845.98 200.09H844.705C844.716 199.623 844.816 199.237 845.005 198.934C845.195 198.628 845.446 198.4 845.758 198.25C846.071 198.098 846.416 198.022 846.793 198.022C847.207 198.022 847.574 198.1 847.893 198.254C848.211 198.406 848.461 198.626 848.643 198.916C848.824 199.206 848.915 199.555 848.915 199.964C848.915 200.237 848.874 200.48 848.793 200.693C848.714 200.903 848.602 201.09 848.458 201.254C848.315 201.415 848.145 201.561 847.949 201.692C847.784 201.801 847.649 201.916 847.543 202.035C847.439 202.154 847.36 202.292 847.308 202.449C847.258 202.605 847.232 202.798 847.23 203.027V203.146H846.046ZM846.665 205.389C846.456 205.389 846.278 205.307 846.13 205.143C845.984 204.978 845.913 204.779 845.915 204.548C845.913 204.319 845.984 204.122 846.13 203.959C846.278 203.795 846.456 203.714 846.665 203.714C846.863 203.714 847.037 203.795 847.187 203.959C847.337 204.122 847.413 204.319 847.415 204.548C847.413 204.702 847.376 204.843 847.305 204.972C847.237 205.098 847.146 205.199 847.033 205.277C846.921 205.351 846.798 205.389 846.665 205.389Z" fill="#06DF73"/>
<path d="M556.993 203.146V203.027C556.995 202.618 557.036 202.292 557.114 202.049C557.195 201.806 557.312 201.61 557.466 201.46C557.619 201.311 557.804 201.175 558.02 201.054C558.182 200.96 558.326 200.863 558.454 200.763C558.581 200.662 558.683 200.551 558.758 200.43C558.834 200.306 558.872 200.168 558.872 200.016C558.872 199.855 558.829 199.714 558.743 199.592C558.657 199.471 558.541 199.377 558.395 199.312C558.252 199.247 558.093 199.214 557.919 199.214C557.749 199.214 557.589 199.248 557.438 199.316C557.287 199.381 557.163 199.479 557.067 199.61C556.971 199.738 556.919 199.898 556.911 200.09H555.317C555.33 199.623 555.455 199.237 555.692 198.934C555.929 198.628 556.243 198.4 556.634 198.25C557.024 198.098 557.455 198.022 557.926 198.022C558.445 198.022 558.903 198.1 559.301 198.254C559.7 198.406 560.012 198.626 560.239 198.916C560.465 199.206 560.579 199.555 560.579 199.964C560.579 200.237 560.528 200.48 560.426 200.693C560.327 200.903 560.188 201.09 560.008 201.254C559.829 201.415 559.617 201.561 559.372 201.692C559.166 201.801 558.997 201.916 558.864 202.035C558.734 202.154 558.636 202.292 558.571 202.449C558.508 202.605 558.476 202.798 558.473 203.027V203.146H556.993ZM557.766 205.389C557.506 205.389 557.283 205.307 557.098 205.143C556.916 204.978 556.826 204.779 556.829 204.548C556.826 204.319 556.916 204.122 557.098 203.959C557.283 203.795 557.506 203.714 557.766 203.714C558.014 203.714 558.231 203.795 558.419 203.959C558.606 204.122 558.701 204.319 558.704 204.548C558.701 204.702 558.656 204.843 558.567 204.972C558.481 205.098 558.368 205.199 558.227 205.277C558.087 205.351 557.933 205.389 557.766 205.389Z" fill="#06DF73"/>
<path d="M750.62 203.146V203.027C750.622 202.618 750.663 202.292 750.741 202.049C750.822 201.806 750.939 201.61 751.092 201.46C751.246 201.311 751.431 201.175 751.647 201.054C751.809 200.96 751.953 200.863 752.081 200.763C752.208 200.662 752.31 200.551 752.385 200.43C752.461 200.306 752.499 200.168 752.499 200.016C752.499 199.855 752.456 199.714 752.37 199.592C752.284 199.471 752.168 199.377 752.022 199.312C751.879 199.247 751.72 199.214 751.546 199.214C751.376 199.214 751.216 199.248 751.065 199.316C750.914 199.381 750.79 199.479 750.694 199.61C750.598 199.738 750.546 199.898 750.538 200.09H748.944C748.957 199.623 749.082 199.237 749.319 198.934C749.556 198.628 749.87 198.4 750.26 198.25C750.651 198.098 751.082 198.022 751.553 198.022C752.072 198.022 752.53 198.1 752.928 198.254C753.327 198.406 753.639 198.626 753.866 198.916C754.092 199.206 754.206 199.555 754.206 199.964C754.206 200.237 754.155 200.48 754.053 200.693C753.954 200.903 753.815 201.09 753.635 201.254C753.456 201.415 753.243 201.561 752.999 201.692C752.793 201.801 752.624 201.916 752.491 202.035C752.361 202.154 752.263 202.292 752.198 202.449C752.135 202.605 752.103 202.798 752.1 203.027V203.146H750.62ZM751.393 205.389C751.133 205.389 750.91 205.307 750.725 205.143C750.543 204.978 750.453 204.779 750.456 204.548C750.453 204.319 750.543 204.122 750.725 203.959C750.91 203.795 751.133 203.714 751.393 203.714C751.641 203.714 751.858 203.795 752.046 203.959C752.233 204.122 752.328 204.319 752.331 204.548C752.328 204.702 752.283 204.843 752.194 204.972C752.108 205.098 751.995 205.199 751.854 205.277C751.714 205.351 751.56 205.389 751.393 205.389Z" fill="#06DF73"/>
<path d="M936.881 203.146V203.027C936.883 202.618 936.924 202.292 937.002 202.049C937.082 201.806 937.2 201.61 937.353 201.46C937.507 201.311 937.692 201.175 937.908 201.054C938.069 200.96 938.214 200.863 938.341 200.763C938.469 200.662 938.571 200.551 938.646 200.43C938.722 200.306 938.759 200.168 938.759 200.016C938.759 199.855 938.716 199.714 938.631 199.592C938.545 199.471 938.429 199.377 938.283 199.312C938.14 199.247 937.981 199.214 937.806 199.214C937.637 199.214 937.477 199.248 937.326 199.316C937.175 199.381 937.051 199.479 936.955 199.61C936.858 199.738 936.806 199.898 936.799 200.09H935.205C935.218 199.623 935.343 199.237 935.58 198.934C935.817 198.628 936.131 198.4 936.521 198.25C936.912 198.098 937.343 198.022 937.814 198.022C938.332 198.022 938.791 198.1 939.189 198.254C939.588 198.406 939.9 198.626 940.127 198.916C940.353 199.206 940.466 199.555 940.466 199.964C940.466 200.237 940.416 200.48 940.314 200.693C940.215 200.903 940.076 201.09 939.896 201.254C939.716 201.415 939.504 201.561 939.259 201.692C939.054 201.801 938.884 201.916 938.752 202.035C938.621 202.154 938.524 202.292 938.459 202.449C938.396 202.605 938.364 202.798 938.361 203.027V203.146H936.881ZM937.654 205.389C937.394 205.389 937.171 205.307 936.986 205.143C936.804 204.978 936.714 204.779 936.717 204.548C936.714 204.319 936.804 204.122 936.986 203.959C937.171 203.795 937.394 203.714 937.654 203.714C937.901 203.714 938.119 203.795 938.306 203.959C938.494 204.122 938.589 204.319 938.591 204.548C938.589 204.702 938.543 204.843 938.455 204.972C938.369 205.098 938.256 205.199 938.115 205.277C937.974 205.351 937.821 205.389 937.654 205.389Z" fill="#06DF73"/>
</g>
<defs>
<clipPath id="clip0_205_2">
<rect width="1024" height="1024" fill="white"/>
</clipPath>
</defs>
</svg>
