<svg width="1131" height="967" viewBox="0 0 1131 967" fill="none" xmlns="http://www.w3.org/2000/svg">
<path d="M214.5 26H235.5V31H445.5V206.5H466M466 9V31M466 206.5V31M466 206.5H565M466 31H565M1110.5 206.5H1114V255.5H492.5M1110.5 206.5V31H1010M1110.5 206.5H1010M565 31V206.5M565 31H682M565 206.5H682M682 31V206.5M682 31H794M682 206.5H794M794 31V206.5M794 31H899.5M794 206.5H899.5M899.5 31V206.5M899.5 31H1010M899.5 206.5H1010M1010 31V206.5M537 272V359.5H466M466 359.5V302.5H492.5V272M466 359.5V432.5M492.5 255.5H451H394.5V260H451V432.5H466M492.5 255.5V272M492.5 272H586M561.5 435V330.5H586V272M561.5 435H466V432.5M561.5 435H671M586 272H671M671 272V435M671 272H781M671 435H781M781 272V435M781 272H895M781 435H895M895 272V435M895 272H1004.5M895 435H1004.5M1004.5 272H1114V435H1004.5M1004.5 272V435" stroke="#06DF73" stroke-width="3"/>
<path d="M30 665H206V264.5" stroke="#06DF73" stroke-width="3"/>
<path d="M381 963.5V690.5H30V956H216.5M30 665V263.5H214.5V246.5M214.5 246.5V25H30V246.5H214.5Z" stroke="#06DF73" stroke-width="3"/>
<path d="M2 940V965L216.5 964V946.5H262.5V964H403.5V479L432.5 454.5H1128.5V5.5H898.5V9H447H235.5V2H4.5V269.5H10.5V392H6.5V665H2V712H6V940H2Z" stroke="#06DF73" stroke-width="4"/>
<path d="M31 388.5H206M31 479.5H206M31 575H206M31 774.5H195.5M195.5 774.5V882.5H139.5M195.5 774.5V690.5M31 882.5H139.5M139.5 882.5V956M250.5 946V884M250.5 690.5V777.5M250.5 777.5H381M250.5 777.5V884M380.5 884H250.5M206 690.5V666.5H260.5M248 666.5V690.5M260.5 446.5H341L381 496V575M260.5 446.5V575M260.5 446.5V439.5H264V256H294V262H280.5V432.5H347L383.5 479.5M260.5 666.5H381V575M260.5 666.5V575M260.5 575H381" stroke="#06DF73" stroke-width="3"/>
</svg>
